<svg xmlns="http://www.w3.org/2000/svg" xmlns:xlink="http://www.w3.org/1999/xlink" contentStyleType="text/css" height="967px" preserveAspectRatio="none" style="width:1295px;height:967px;background:#FFFFFF;" version="1.1" viewBox="0 0 1295 967" width="1295px" zoomAndPan="magnify"><title>Dream Fit &#8212; Pixel Watch 4 &#8596; iPhone</title><defs/><g><text fill="#1C1C1E" font-family="Helvetica" font-size="16" font-weight="bold" lengthAdjust="spacing" textLength="279.6625" x="499.9187" y="22.3203">Dream Fit &#8212; Pixel Watch 4 &#8596; iPhone</text><!--cluster WATCHBOX--><g id="cluster_WATCHBOX"><path d="M19,41 L163.8271,41 A7.5,7.5 0 0 1 168.8271,46 L175.8271,60 L489,60 A5,5 0 0 1 494,65 L494,670 A5,5 0 0 1 489,675 L19,675 A5,5 0 0 1 14,670 L14,46 A5,5 0 0 1 19,41 " fill="#FFFFFF" style="stroke:#C7C7CC;stroke-width:1.0;"/><line style="stroke:#C7C7CC;stroke-width:1.0;" x1="14" x2="175.8271" y1="60" y2="60"/><text fill="#6E6E73" font-family="Helvetica" font-size="13" font-weight="bold" lengthAdjust="spacing" textLength="148.8271" x="18" y="53.0103">Pixel Watch 4 &#183; Wear OS</text></g><!--cluster PHONEBOX--><g id="cluster_PHONEBOX"><path d="M713,492 L785.5654,492 A7.5,7.5 0 0 1 790.5654,497 L797.5654,511 L1092,511 A5,5 0 0 1 1097,516 L1097,955 A5,5 0 0 1 1092,960 L713,960 A5,5 0 0 1 708,955 L708,497 A5,5 0 0 1 713,492 " fill="#FFFFFF" style="stroke:#C7C7CC;stroke-width:1.0;"/><line style="stroke:#C7C7CC;stroke-width:1.0;" x1="708" x2="797.5654" y1="511" y2="511"/><text fill="#6E6E73" font-family="Helvetica" font-size="13" font-weight="bold" lengthAdjust="spacing" textLength="76.5654" x="712" y="504.0103">iPhone &#183; iOS</text></g><g id="elem_GMN46"><path d="M502,527.5 L502,560.5 A5,5 0 0 0 507,565.5 L695.3052,565.5 A5,5 0 0 0 700.3052,560.5 L700.3052,532.5 L690.3052,522.5 L582.6806,522.5 L445.521,429.0534 L574.6806,522.5 L507,522.5 A5,5 0 0 0 502,527.5 " fill="#FFF6E5" style="stroke:#B26A00;stroke-width:0.5;"/><path d="M690.3052,522.5 L690.3052,530 A2.5,2.5 0 0 0 692.8052,532.5 L700.3052,532.5 L690.3052,522.5 " fill="#FFF6E5" style="stroke:#B26A00;stroke-width:0.5;"/><text fill="#1C1C1E" font-family="Helvetica" font-size="11" lengthAdjust="spacing" textLength="152.2544" x="508" y="535.9702">Both links ride one bond. Every</text><text fill="#1C1C1E" font-family="Helvetica" font-size="11" lengthAdjust="spacing" textLength="177.3052" x="508" y="546.9702">characteristic requires an encrypted,</text><text fill="#1C1C1E" font-family="Helvetica" font-size="11" lengthAdjust="spacing" textLength="136.9468" x="508" y="557.9702">MITM-protected connection.</text></g><g id="elem_GMN49"><path d="M1105.5,729.5 L1105.5,742 L963.127,746 L1105.5,750 L1105.5,762.5 A5,5 0 0 0 1110.5,767.5 L1283.519,767.5 A5,5 0 0 0 1288.519,762.5 L1288.519,734.5 L1278.519,724.5 L1110.5,724.5 A5,5 0 0 0 1105.5,729.5 " fill="#FFF6E5" style="stroke:#B26A00;stroke-width:0.5;"/><path d="M1278.519,724.5 L1278.519,732 A2.5,2.5 0 0 0 1281.019,734.5 L1288.519,734.5 L1278.519,724.5 " fill="#FFF6E5" style="stroke:#B26A00;stroke-width:0.5;"/><text fill="#1C1C1E" font-family="Helvetica" font-size="11" lengthAdjust="spacing" textLength="162.019" x="1111.5" y="737.9702">The watch owns every daily total.</text><text fill="#1C1C1E" font-family="Helvetica" font-size="11" lengthAdjust="spacing" textLength="149.7729" x="1111.5" y="748.9702">HealthKit is a mirror reconciled</text><text fill="#1C1C1E" font-family="Helvetica" font-size="11" lengthAdjust="spacing" textLength="158.9736" x="1111.5" y="759.9702">against it, never an accumulator.</text></g><!--entity HS--><g id="elem_HS"><rect fill="#F2F2F7" height="44" rx="5" ry="5" style="stroke:#C7C7CC;stroke-width:1.0;" width="104.0352" x="34" y="65"/><text fill="#6E6E73" font-family="Helvetica" font-size="12" lengthAdjust="spacing" textLength="84.0352" x="44" y="84.2402">Health Services</text><text fill="#6E6E73" font-family="Helvetica" font-size="12" lengthAdjust="spacing" textLength="80.7012" x="44" y="96.2402">STEPS_DAILY</text></g><!--entity SENSORS--><g id="elem_SENSORS"><rect fill="#F2F2F7" height="44" rx="5" ry="5" style="stroke:#C7C7CC;stroke-width:1.0;" width="147.4063" x="338.5" y="160"/><text fill="#6E6E73" font-family="Helvetica" font-size="12" lengthAdjust="spacing" textLength="44.0215" x="348.5" y="179.2402">Sensors</text><text fill="#6E6E73" font-family="Helvetica" font-size="12" lengthAdjust="spacing" textLength="127.4063" x="348.5" y="191.2402">heart rate &#183; step counter</text></g><!--entity PASSIVE--><g id="elem_PASSIVE"><rect fill="#EAF8EF" height="32" rx="5" ry="5" style="stroke:#1DA34A;stroke-width:1.0;" width="127.3789" x="22.5" y="166"/><text fill="#1C1C1E" font-family="Helvetica" font-size="12" lengthAdjust="spacing" textLength="107.3789" x="32.5" y="185.2402">PassiveDataService</text></g><!--entity DAYLOG--><g id="elem_DAYLOG"><rect fill="#EAF8EF" height="56" rx="5" ry="5" style="stroke:#1DA34A;stroke-width:1.0;" width="170.0527" x="119" y="266"/><text fill="#1C1C1E" font-family="Helvetica" font-size="12" lengthAdjust="spacing" textLength="41.3613" x="129" y="285.2402">DayLog</text><text fill="#1C1C1E" font-family="Helvetica" font-size="12" lengthAdjust="spacing" textLength="150.0527" x="129" y="297.2402">steps &#183; resting HR &#183; exercise</text><text fill="#1C1C1E" font-family="Helvetica" font-size="12" lengthAdjust="spacing" textLength="105.0527" x="129" y="309.2402">rollover + projection</text></g><!--entity WSET--><g id="elem_WSET"><rect fill="#EAF8EF" height="44" rx="5" ry="5" style="stroke:#1DA34A;stroke-width:1.0;" width="68.7031" x="416.5" y="272"/><text fill="#1C1C1E" font-family="Helvetica" font-size="12" lengthAdjust="spacing" textLength="43.3594" x="426.5" y="291.2402">Settings</text><text fill="#1C1C1E" font-family="Helvetica" font-size="12" lengthAdjust="spacing" textLength="48.7031" x="426.5" y="303.2402">step goal</text></g><!--entity SVC--><g id="elem_SVC"><rect fill="#EAF8EF" height="56" rx="5" ry="5" style="stroke:#1DA34A;stroke-width:1.0;" width="150.7109" x="300.5" y="373"/><text fill="#1C1C1E" font-family="Helvetica" font-size="12" lengthAdjust="spacing" textLength="74.7012" x="310.5" y="392.2402">BridgeService</text><text fill="#1C1C1E" font-family="Helvetica" font-size="12" lengthAdjust="spacing" textLength="130.7109" x="310.5" y="404.2402">GATT server &#183; TX queue</text><text fill="#1C1C1E" font-family="Helvetica" font-size="12" lengthAdjust="spacing" textLength="60.0352" x="310.5" y="416.2402">link phases</text></g><!--entity ADV--><g id="elem_ADV"><rect fill="#EAF8EF" height="44" rx="5" ry="5" style="stroke:#1DA34A;stroke-width:1.0;" width="128.709" x="311.5" y="522"/><text fill="#1C1C1E" font-family="Helvetica" font-size="12" lengthAdjust="spacing" textLength="54.0176" x="321.5" y="541.2402">Advertiser</text><text fill="#1C1C1E" font-family="Helvetica" font-size="12" lengthAdjust="spacing" textLength="108.709" x="321.5" y="553.2402">30s burst / 5min rest</text></g><!--entity ANCS--><g id="elem_ANCS"><rect fill="#EAF8EF" height="32" rx="5" ry="5" style="stroke:#1DA34A;stroke-width:1.0;" width="77.3574" x="307.5" y="71"/><text fill="#1C1C1E" font-family="Helvetica" font-size="12" lengthAdjust="spacing" textLength="57.3574" x="317.5" y="90.2402">AncsClient</text></g><!--entity TRAY--><g id="elem_TRAY"><rect fill="#EAF8EF" height="44" rx="5" ry="5" style="stroke:#1DA34A;stroke-width:1.0;" width="152.7324" x="167.5" y="160"/><text fill="#1C1C1E" font-family="Helvetica" font-size="12" lengthAdjust="spacing" textLength="24" x="177.5" y="179.2402">Tray</text><text fill="#1C1C1E" font-family="Helvetica" font-size="12" lengthAdjust="spacing" textLength="132.7324" x="177.5" y="191.2402">notifications &#183; call actions</text></g><!--entity WSTATE--><g id="elem_WSTATE"><rect fill="#EAF8EF" height="32" rx="5" ry="5" style="stroke:#1DA34A;stroke-width:1.0;" width="82.0273" x="201" y="528"/><text fill="#1C1C1E" font-family="Helvetica" font-size="12" lengthAdjust="spacing" textLength="62.0273" x="211" y="547.2402">WatchState</text></g><!--entity WUI--><g id="elem_WUI"><rect fill="#EAF8EF" height="44" rx="5" ry="5" style="stroke:#1DA34A;stroke-width:1.0;" width="107.3574" x="188.5" y="623"/><text fill="#1C1C1E" font-family="Helvetica" font-size="12" lengthAdjust="spacing" textLength="87.3574" x="198.5" y="642.2402">DreamFitScreen</text><text fill="#1C1C1E" font-family="Helvetica" font-size="12" lengthAdjust="spacing" textLength="51.3574" x="198.5" y="654.2402">Compose</text></g><!--entity IOSANCS--><g id="elem_IOSANCS"><rect fill="#F2F2F7" height="32" rx="5" ry="5" style="stroke:#C7C7CC;stroke-width:1.0;" width="76.6777" x="899.5" y="528"/><text fill="#6E6E73" font-family="Helvetica" font-size="12" lengthAdjust="spacing" textLength="56.6777" x="909.5" y="547.2402">iOS ANCS</text></g><!--entity BC--><g id="elem_BC"><rect fill="#EAF2FC" height="56" rx="5" ry="5" style="stroke:#0A6ED1;stroke-width:1.0;" width="154.0801" x="727" y="516"/><text fill="#1C1C1E" font-family="Helvetica" font-size="12" lengthAdjust="spacing" textLength="73.3711" x="737" y="535.2402">BridgeCentral</text><text fill="#1C1C1E" font-family="Helvetica" font-size="12" lengthAdjust="spacing" textLength="116.0684" x="737" y="547.2402">CoreBluetooth central</text><text fill="#1C1C1E" font-family="Helvetica" font-size="12" lengthAdjust="spacing" textLength="134.0801" x="737" y="559.2402">LinkPhase state machine</text></g><!--entity EVENT--><g id="elem_EVENT"><rect fill="#EAF2FC" height="44" rx="5" ry="5" style="stroke:#0A6ED1;stroke-width:1.0;" width="156.7578" x="756.5" y="623"/><text fill="#1C1C1E" font-family="Helvetica" font-size="12" lengthAdjust="spacing" textLength="64.6934" x="766.5" y="642.2402">WatchEvent</text><text fill="#1C1C1E" font-family="Helvetica" font-size="12" lengthAdjust="spacing" textLength="136.7578" x="766.5" y="654.2402">wire decode &#183; day bounds</text></g><!--entity STORE--><g id="elem_STORE"><rect fill="#EAF2FC" height="56" rx="5" ry="5" style="stroke:#0A6ED1;stroke-width:1.0;" width="136.0449" x="827" y="718"/><text fill="#1C1C1E" font-family="Helvetica" font-size="12" lengthAdjust="spacing" textLength="63.3691" x="837" y="737.2402">HealthStore</text><text fill="#1C1C1E" font-family="Helvetica" font-size="12" lengthAdjust="spacing" textLength="116.0449" x="837" y="749.2402">snapshot &#183; step mirror</text><text fill="#1C1C1E" font-family="Helvetica" font-size="12" lengthAdjust="spacing" textLength="71.0449" x="837" y="761.2402">queue + retry</text></g><!--entity SINK--><g id="elem_SINK"><rect fill="#EAF2FC" height="44" rx="5" ry="5" style="stroke:#0A6ED1;stroke-width:1.0;" width="103.373" x="843.5" y="825"/><text fill="#1C1C1E" font-family="Helvetica" font-size="12" lengthAdjust="spacing" textLength="72.0352" x="853.5" y="844.2402">HealthKitSink</text><text fill="#1C1C1E" font-family="Helvetica" font-size="12" lengthAdjust="spacing" textLength="83.373" x="853.5" y="856.2402">async HealthKit</text></g><!--entity UI--><g id="elem_UI"><rect fill="#EAF2FC" height="44" rx="5" ry="5" style="stroke:#0A6ED1;stroke-width:1.0;" width="109.3789" x="716.5" y="825"/><text fill="#1C1C1E" font-family="Helvetica" font-size="12" lengthAdjust="spacing" textLength="68.0391" x="726.5" y="844.2402">ContentView</text><text fill="#1C1C1E" font-family="Helvetica" font-size="12" lengthAdjust="spacing" textLength="89.3789" x="726.5" y="856.2402">ring &#183; chart &#183; goal</text></g><!--entity DIAG--><g id="elem_DIAG"><rect fill="#EAF2FC" height="44" rx="5" ry="5" style="stroke:#0A6ED1;stroke-width:1.0;" width="124.3848" x="965" y="825"/><text fill="#1C1C1E" font-family="Helvetica" font-size="12" lengthAdjust="spacing" textLength="62.0273" x="975" y="844.2402">Diagnostics</text><text fill="#1C1C1E" font-family="Helvetica" font-size="12" lengthAdjust="spacing" textLength="104.3848" x="975" y="856.2402">in-app + system log</text></g><!--entity HK--><g id="elem_HK"><rect fill="#F2F2F7" height="32" rx="5" ry="5" style="stroke:#C7C7CC;stroke-width:1.0;" width="88.7129" x="850.5" y="920"/><text fill="#6E6E73" font-family="Helvetica" font-size="12" lengthAdjust="spacing" textLength="68.7129" x="860.5" y="939.2402">Apple Health</text></g><polygon fill="#6E6E73" points="86,165.7747,90,156.7747,86,160.7747,82,156.7747,86,165.7747" style="stroke:#6E6E73;stroke-width:1.0;"/><path d="M86,109.1031 C86,126.3596 86,144.3476 86,159.7747 " fill="none" style="stroke:#6E6E73;stroke-width:1.0;"/><text fill="#6E6E73" font-family="Helvetica" font-size="11" lengthAdjust="spacing" textLength="75.2222" x="88" y="137.4702">daily aggregate</text><polygon fill="#6E6E73" points="141.4252,265.7277,135.9732,257.5255,137.2048,263.0467,131.6836,264.2783,141.4252,265.7277" style="stroke:#6E6E73;stroke-width:1.0;"/><path d="M90.6427,198.0143 C95.6972,212.3225 104.9821,233.7401 119,248 C125.555,254.6682 128.245,257.3552 136.3607,262.5105 " fill="none" style="stroke:#6E6E73;stroke-width:1.0;"/><text fill="#6E6E73" font-family="Helvetica" font-size="11" lengthAdjust="spacing" textLength="65.436" x="121" y="237.9702">absolute total</text><polygon fill="#6E6E73" points="201.9015,265.9136,206.1312,257.0192,202.0299,260.9152,198.1339,256.8138,201.9015,265.9136" style="stroke:#6E6E73;stroke-width:1.0;"/><path d="M338.3119,202.0039 C335.1709,202.7001 332.0569,203.3689 329,204 C304.3123,209.0966 235.0176,204.3699 217,222 C205.5353,233.2181 202.4394,244.9701 202.0555,259.9155 " fill="none" style="stroke:#6E6E73;stroke-width:1.0;"/><text fill="#6E6E73" font-family="Helvetica" font-size="11" lengthAdjust="spacing" textLength="47.6953" x="244.9961" y="232.4702">projection</text><text fill="#6E6E73" font-family="Helvetica" font-size="11" lengthAdjust="spacing" textLength="99.6875" x="219" y="243.4702">between aggregates</text><polygon fill="#6E6E73" points="356.6501,372.9012,355.2927,363.1463,354.0091,368.6556,348.4998,367.372,356.6501,372.9012" style="stroke:#6E6E73;stroke-width:1.0;"/><path d="M383.1804,204.1333 C365.2992,219.1354 343.9045,240.9975 334,266 C319.6336,302.2658 336.4622,340.4484 353.4808,367.8065 " fill="none" style="stroke:#6E6E73;stroke-width:1.0;"/><text fill="#6E6E73" font-family="Helvetica" font-size="11" lengthAdjust="spacing" textLength="69.083" x="336" y="296.9702">heart rate (5s)</text><polygon fill="#6E6E73" points="300.2364,373.9658,293.6747,366.6211,295.678,371.9114,290.3877,373.9146,300.2364,373.9658" style="stroke:#6E6E73;stroke-width:1.0;"/><path d="M227.2762,322.2294 C237.9196,333.4656 251.2182,345.948 265,355 C275.8628,362.1348 282.5675,366.0027 294.7663,371.5005 " fill="none" style="stroke:#6E6E73;stroke-width:1.0;"/><text fill="#6E6E73" font-family="Helvetica" font-size="11" lengthAdjust="spacing" textLength="51.9707" x="267" y="350.4702">day record</text><polygon fill="#6E6E73" points="395.4363,372.7892,403.9224,367.7905,398.3425,368.7205,397.4125,363.1406,395.4363,372.7892" style="stroke:#6E6E73;stroke-width:1.0;"/><path d="M435.8226,316.2483 C424.1802,332.5478 411.5117,350.2836 398.9237,367.9068 " fill="none" style="stroke:#6E6E73;stroke-width:1.0;"/><polygon fill="#6E6E73" points="376,521.8718,380,512.8718,376,516.8718,372,512.8718,376,521.8718" style="stroke:#6E6E73;stroke-width:1.0;"/><path d="M376,429.1862 C376,456.2348 376,491.1715 376,515.8718 " fill="none" style="stroke:#6E6E73;stroke-width:1.0;"/><text fill="#6E6E73" font-family="Helvetica" font-size="11" lengthAdjust="spacing" textLength="96.6045" x="378" y="468.4702">off while subscribed</text><polygon fill="#6E6E73" points="256.5794,527.6589,265.6789,523.8906,260.0239,524.0346,259.8799,518.3796,256.5794,527.6589" style="stroke:#6E6E73;stroke-width:1.0;"/><path d="M350.1635,429.1862 C322.3283,458.4755 283.1503,499.7 260.7127,523.3097 " fill="none" style="stroke:#6E6E73;stroke-width:1.0;"/><polygon fill="#6E6E73" points="239.674,527.8199,242.2647,518.3179,238.9167,522.8776,234.357,519.5296,239.674,527.8199" style="stroke:#6E6E73;stroke-width:1.0;"/><path d="M208.139,322.0124 C216.1219,374.1113 232.5012,481.008 238.7653,521.8891 " fill="none" style="stroke:#6E6E73;stroke-width:1.0;"/><polygon fill="#6E6E73" points="242,622.9346,246,613.9346,242,617.9346,238,613.9346,242,622.9346" style="stroke:#6E6E73;stroke-width:1.0;"/><path d="M242,560.036 C242,576.8044 242,598.0479 242,616.9346 " fill="none" style="stroke:#6E6E73;stroke-width:1.0;"/><polygon fill="#6E6E73" points="267.3569,159.704,276.7025,156.5961,271.0517,156.3352,271.3125,150.6844,267.3569,159.704" style="stroke:#6E6E73;stroke-width:1.0;"/><path d="M329.1568,103.3571 C312.2948,118.7312 290.6472,138.4687 271.7906,155.6615 " fill="none" style="stroke:#6E6E73;stroke-width:1.0;"/><polygon fill="#6E6E73" points="828.4067,622.9441,829.5345,613.16,826.9126,618.1725,821.9001,615.5506,828.4067,622.9441" style="stroke:#6E6E73;stroke-width:1.0;"/><path d="M812.4709,572.0522 C817.4904,588.0822 821.9647,602.3712 826.6138,617.2182 " fill="none" style="stroke:#6E6E73;stroke-width:1.0;"/><text fill="#6E6E73" font-family="Helvetica" font-size="11" lengthAdjust="spacing" textLength="22.623" x="825" y="600.4702">lines</text><polygon fill="#6E6E73" points="878.5725,717.8946,877.3286,708.1247,875.981,713.6187,870.487,712.2711,878.5725,717.8946" style="stroke:#6E6E73;stroke-width:1.0;"/><path d="M848.0191,667.4815 C856.9802,682.2673 865.8455,696.8951 875.4627,712.7635 " fill="none" style="stroke:#6E6E73;stroke-width:1.0;"/><text fill="#6E6E73" font-family="Helvetica" font-size="11" lengthAdjust="spacing" textLength="36.6846" x="869" y="695.4702">hr &#183; day</text><polygon fill="#6E6E73" points="895,824.9441,899,815.9441,895,819.9441,891,815.9441,895,824.9441" style="stroke:#6E6E73;stroke-width:1.0;"/><path d="M895,774.0522 C895,790.0822 895,804.097 895,818.9441 " fill="none" style="stroke:#6E6E73;stroke-width:1.0;"/><text fill="#6E6E73" font-family="Helvetica" font-size="11" lengthAdjust="spacing" textLength="44.0215" x="897" y="802.4702">reconcile</text><polygon fill="#6E6E73" points="895,919.8582,899,910.8582,895,914.8582,891,910.8582,895,919.8582" style="stroke:#6E6E73;stroke-width:1.0;"/><path d="M895,869.0603 C895,884.7504 895,899.8041 895,913.8582 " fill="none" style="stroke:#6E6E73;stroke-width:1.0;"/><text fill="#6E6E73" font-family="Helvetica" font-size="11" lengthAdjust="spacing" textLength="112.4761" x="897" y="897.4702">steps &#183; HR &#183; resting HR</text><polygon fill="#6E6E73" points="808.8892,824.9617,818.6483,823.6353,813.1431,822.3342,814.4443,816.829,808.8892,824.9617" style="stroke:#6E6E73;stroke-width:1.0;"/><path d="M870.5661,774.1135 C860.1395,784.9506 847.5066,797.1659 835,807 C826.9197,813.3537 822.8364,816.3469 813.9939,821.8086 " fill="none" style="stroke:#6E6E73;stroke-width:1.0;"/><polygon fill="#6E6E73" points="763.009,824.7976,763.8429,814.9841,761.3725,820.073,756.2836,817.6025,763.009,824.7976" style="stroke:#6E6E73;stroke-width:1.0;"/><path d="M777.5211,572.1596 C765.732,586.144 753.1418,604.186 747,623 C723.7385,694.2566 747.0667,778.7721 761.0452,819.1281 " fill="none" style="stroke:#6E6E73;stroke-width:1.0;"/><text fill="#6E6E73" font-family="Helvetica" font-size="11" lengthAdjust="spacing" textLength="49.5322" x="740" y="695.4702">link phase</text><polygon fill="#6E6E73" points="826.9783,762.3509,817.1348,762.0247,822.3444,764.2291,820.14,769.4388,826.9783,762.3509" style="stroke:#6E6E73;stroke-width:1.0;"/><path d="M771.1352,824.9768 C772.2383,814.0328 775.2945,801.0797 783,792 C794.4574,778.4992 804.9932,771.2621 821.4177,764.6048 " fill="none" style="stroke:#6E6E73;stroke-width:1.0;"/><text fill="#6E6E73" font-family="Helvetica" font-size="11" lengthAdjust="spacing" textLength="44.6445" x="785" y="802.4702">step goal</text><polygon fill="#6E6E73" points="869.0056,572.0155,874.7792,579.9946,873.3292,574.5267,878.7971,573.0768,869.0056,572.0155" style="stroke:#6E6E73;stroke-width:1.0;"/><path d="M911.599,717.8435 C925.0109,692.1029 939.216,653.018 923,623 C911.1418,601.0489 895.3059,587.291 874.194,575.029 " fill="none" style="stroke:#6E6E73;stroke-width:1.0;"/><text fill="#6E6E73" font-family="Helvetica" font-size="11" lengthAdjust="spacing" textLength="47.7061" x="932" y="647.9702">goal push</text><polygon fill="#6E6E73" points="1029.1121,824.9269,1033.755,816.2411,1029.4751,819.9401,1025.7761,815.6602,1029.1121,824.9269" style="stroke:#6E6E73;stroke-width:1.0;"/><path d="M881.3011,570.1143 C923.9264,585.4883 970.994,605.503 985,623 C1033.2541,683.2815 1032.6744,775.9913 1029.5477,818.9427 " fill="none" style="stroke:#6E6E73;stroke-width:1.0;stroke-dasharray:7.0,7.0;"/><polygon fill="#6E6E73" points="998.9254,824.9441,994.1254,816.3441,994.9254,821.9441,989.3254,822.7441,998.9254,824.9441" style="stroke:#6E6E73;stroke-width:1.0;"/><path d="M931.0696,774.0522 C952.443,790.0822 974.3293,806.497 994.1254,821.3441 " fill="none" style="stroke:#6E6E73;stroke-width:1.0;stroke-dasharray:7.0,7.0;"/><polygon fill="#0A6ED1" points="451.6501,417.254,459.5845,423.0889,456.5341,418.325,461.298,415.2746,451.6501,417.254" style="stroke:#0A6ED1;stroke-width:1.0;"/><polygon fill="#0A6ED1" points="758.6287,515.9153,752.6624,508.0793,754.2452,513.5102,748.8143,515.093,758.6287,515.9153" style="stroke:#0A6ED1;stroke-width:1.0;"/><path d="M457.5109,418.5392 C526.0603,433.5708 623.2961,457.9352 709,492 C725.6999,498.6377 737.9739,504.5829 753.3685,513.0292 " fill="none" style="stroke:#0A6ED1;stroke-width:2.0;"/><text fill="#6E6E73" font-family="Helvetica" font-size="11" font-weight="bold" lengthAdjust="spacing" textLength="83.1553" x="711.2808" y="457.4702">GATT 6E400001</text><text fill="#6E6E73" font-family="Helvetica" font-size="11" lengthAdjust="spacing" textLength="86.2007" x="709.7581" y="468.4702">TX notify: hr &#183; day</text><text fill="#6E6E73" font-family="Helvetica" font-size="11" lengthAdjust="spacing" textLength="135.7168" x="685" y="479.4702">RX write: notify &#183; sync &#183; goal</text><polygon fill="#6E6E73" points="384.5164,90.3874,393.2333,94.9716,389.5055,90.7168,393.7603,86.989,384.5164,90.3874" style="stroke:#6E6E73;stroke-width:1.0;"/><path d="M390.5033,90.7827 C516.1382,99.0777 900,128.6405 900,181 C900,181 900,181 900,402 C900,449.1558 920.0599,502.2212 931.0302,527.7157 " fill="none" style="stroke:#6E6E73;stroke-width:1.0;stroke-dasharray:7.0,7.0;"/><text fill="#6E6E73" font-family="Helvetica" font-size="11" font-weight="bold" lengthAdjust="spacing" textLength="31.1685" x="902" y="296.9702">ANCS</text><text fill="#6E6E73" font-family="Helvetica" font-size="11" lengthAdjust="spacing" textLength="133.9067" x="936.2246" y="296.9702">&#8212; every iPhone notification</text><!--SRC=[VLRRRjj647tNLqpSbrQrNAT9N4183UZ2se8TIp0PNr05nOeSazjGkypkqZ9H5EXJlo3_qlT-IhwaCxkq90TMzRIxSvyvSwWNbH7vKa0f6bqxi4jqGedE2wdIiiuGh6jAFAZgPTaffB-ZGUsQ2ZjEkX9XR50iuHVfuCjVds4c7x24Q-7I0bx3bxy_WvmLMc6dKudqeyWHzfwg_FiFNACmC8ttG5Yu7YIZq-7q1lxe0AHwMP6jSh1tYg9q1SHexcMATgxY99h5luq7a_DRRtWQmzkt-E2EZvyQngYiDcHGK1G7HZZac5H6HMgredAyVHnTnDFB7KvcmbfvZsFXH9k1jvaDudXo5P7DYglvsceicdETpnN7iXpKe7LIvN1woJTyG9DAYtDbT5dgUpJmFLH6_uwfarhv2EF1xVdqP5U061txio44v5gKeObnbEoo6HgPvTXMCLSdWoG1IpUAJZabD_2fnfe4fLGVeIg4HHlwSpNQvNAGaRMZIinSlJgqiAYDTV03l5bAvMls3WRZgvqEL6f7fQHpqBmOnRjK4oEQkLBQoJkP2kwJxsmgoXA4xrj8DxaStExouQ4NEq92swraaEmU8iERq1sd1b7DrOX5jhLyFzao8pi2OQztlCP57p8XomP4dXlCAHwfFCfOhvrk7yJ2wh8cP3hjH4bQZsXyehN1nbmjqAqedurh-vKLpwiFMw3_zetzZdHQRnkLJ3Gqf5IRZAGUEQsC7P86ttXsVT1tTx0g9EsyhHSsDNA1sPPIwEFJ4Ektjid-xVs47loG-SgJwlovnG-1C7YgiYM5sUdq8dg654Zk_NYboJHkWVFC0WVKZ-XiHCb3D3WiQtHQ4wcaZy_dXFaPGvxeWLks56aXLPZraE5VSMRFmYcwf_DShQH1oAYRcI-0UxiWaia2AAEhw2BPvIOmNEmeDTfd9IfRQBUcggKqHjD- -UqadZ3eJ1CMCvbUHl_lz8pWIwNDbR2DIc7z6Emd5sUxp4UQ-56vAuahOYccBjwrWZ55XpNV-3Luri5OYbnfOhsKI4ggdgWgIjusLDCIIfq7afiCJdOv65GLuIra77Z-R3rXqXm6w8N6ze58ooz2k7iS- -xG8fXs7WnO_-QbN7lVmr-b16mMyXFBJbcofkv0sHi2V-B60xfDXNhXysZ9amJqift9cggVk1ZoAl8hLBKjWhk3WsFVcxNY-e7MnVDnxzTl3WT7qVZblYja-f6Ajp__-E7HNRVhsVqeUdr8lvVTxbmHltlkRBOwCbUNDx0oqc6_5NhKCLBQ8NV2Ob6qe-We-kdLVYPiWTc7tdhfE1WVkbt_Bm3fWz2qNtxO9kjEXsv8E-6SNXAXj3mpv3Nafbam_2U3pHPQPGSGiIU6186E-1sDP33H83xLj6eMX09KgMagXza-wRsR9EzwH9IEY18pGf9IWJ8FEgWopWNR78pC2-TJuDwIQL8WU2u7lQAlIgWX4BYdvGCc-CVL0KcnswtSu8VfKEH2qlSOfDi7nKuuHv6czR8k1Mtt9f7_0000]--></g></svg>