<svg xmlns="http://www.w3.org/2000/svg" xmlns:xlink="http://www.w3.org/1999/xlink" version="1.1" data-diagram-type="DESCRIPTION" style="width:1006px;height:878px;background:#FFFFFF;" width="1006px" height="878px" viewBox="0 0 1006 878" zoomAndPan="magnify" preserveAspectRatio="none" contentStyleType="text/css"><?plantuml 1.2026.8?><defs/><g font-family="sans-serif" lengthAdjust="spacing"><g class="title" data-source-line="3"><text x="359.918" y="22.32" fill="#1C1C1E" font-size="16" textLength="279.164" font-weight="700" font-family="Helvetica">Dream Fit — Pixel Watch 4 to iPhone</text></g><!--cluster W--><g class="cluster" data-qualified-name="W" id="ent0001" data-source-line="8"><path d="M11,43 L155.827,43 A7.5,7.5 0 0 1 160.827,48 L167.827,62 L986,62 A5,5 0 0 1 991,67 L991,438 A5,5 0 0 1 986,443 L11,443 A5,5 0 0 1 6,438 L6,48 A5,5 0 0 1 11,43" style="stroke:#C7C7CC;stroke-width:1;" fill="#FFF"/><line x1="6" y1="62" x2="167.827" y2="62" style="stroke:#C7C7CC;stroke-width:1;"/><text x="10" y="55.01" fill="#6E6E73" font-size="13" textLength="148.827" font-weight="700" font-family="Helvetica">Pixel Watch 4 · Wear OS</text></g><!--cluster P--><g class="cluster" data-qualified-name="P" id="ent0028" data-source-line="40"><path d="M394,499 L466.565,499 A7.5,7.5 0 0 1 471.565,504 L478.565,518 L756,518 A5,5 0 0 1 761,523 L761,858 A5,5 0 0 1 756,863 L394,863 A5,5 0 0 1 389,858 L389,504 A5,5 0 0 1 394,499" style="stroke:#C7C7CC;stroke-width:1;" fill="#FFF"/><line x1="389" y1="518" x2="478.565" y2="518" style="stroke:#C7C7CC;stroke-width:1;"/><text x="393" y="511.01" fill="#6E6E73" font-size="13" textLength="76.565" font-weight="700" font-family="Helvetica">iPhone · iOS</text></g><!--entity HS--><g class="entity" data-qualified-name="W.HS" id="ent0002" data-source-line="9"><rect x="244.64" y="75" width="154.725" height="56" fill="#F2F2F7" style="stroke:#C7C7CC;stroke-width:1;" rx="5" ry="5"/><text x="254.64" y="94.24" fill="#6E6E73" font-size="12" textLength="134.725" font-family="Helvetica">Health Services · passive</text><text x="254.64" y="106.24" fill="#6E6E73" font-size="12" textLength="122.725" font-family="Helvetica">steps · distance · floors</text><text x="254.64" y="118.24" fill="#6E6E73" font-size="12" textLength="127.389" font-family="Helvetica">heart rate · activity state</text></g><!--entity SENS--><g class="entity" data-qualified-name="W.SENS" id="ent0003" data-source-line="10"><rect x="432.3" y="195" width="191.404" height="44" fill="#F2F2F7" style="stroke:#C7C7CC;stroke-width:1;" rx="5" ry="5"/><text x="442.3" y="214.24" fill="#6E6E73" font-size="12" textLength="171.404" font-family="Helvetica">Health Services · MeasureClient</text><text x="442.3" y="226.24" fill="#6E6E73" font-size="12" textLength="154.746" font-family="Helvetica">live heart rate, while watched</text></g><!--entity OFFBODY--><g class="entity" data-qualified-name="W.OFFBODY" id="ent0004" data-source-line="11"><rect x="42.64" y="81" width="102.711" height="44" fill="#F2F2F7" style="stroke:#C7C7CC;stroke-width:1;" rx="5" ry="5"/><text x="52.64" y="100.24" fill="#6E6E73" font-size="12" textLength="82.711" font-family="Helvetica">off-body sensor</text><text x="52.64" y="112.24" fill="#6E6E73" font-size="12" textLength="60.029" font-family="Helvetica">worn or not</text></g><!--entity DAYLOG--><g class="entity" data-qualified-name="W.DAYLOG" id="ent0005" data-source-line="12"><rect x="802.96" y="189" width="172.074" height="56" fill="#EAF8EF" style="stroke:#1DA34A;stroke-width:1;" rx="5" ry="5"/><text x="812.96" y="208.24" fill="#1C1C1E" font-size="12" textLength="41.361" font-family="Helvetica">DayLog</text><text x="812.96" y="220.24" fill="#1C1C1E" font-size="12" textLength="122.725" font-family="Helvetica">steps · distance · floors</text><text x="812.96" y="232.24" fill="#1C1C1E" font-size="12" textLength="152.074" font-family="Helvetica">resting HR · delivered ledger</text></g><!--entity DQ--><g class="entity" data-qualified-name="W.DQ" id="ent0006" data-source-line="13"><rect x="211.62" y="189" width="198.77" height="56" fill="#EAF8EF" style="stroke:#1DA34A;stroke-width:1;" rx="5" ry="5"/><text x="221.62" y="208.24" fill="#1C1C1E" font-size="12" textLength="64.043" font-family="Helvetica">DeltaQueue</text><text x="221.62" y="220.24" fill="#1C1C1E" font-size="12" textLength="178.77" font-family="Helvetica">append-only log · 64-msg window</text><text x="221.62" y="232.24" fill="#1C1C1E" font-size="12" textLength="146.742" font-family="Helvetica">held until the radio confirms</text></g><!--entity BOOT--><g class="entity" data-qualified-name="W.BOOT" id="ent0007" data-source-line="14"><rect x="645.32" y="195" width="135.354" height="44" fill="#EAF8EF" style="stroke:#1DA34A;stroke-width:1;" rx="5" ry="5"/><text x="655.32" y="214.24" fill="#1C1C1E" font-size="12" textLength="72.035" font-family="Helvetica">BootReceiver</text><text x="655.32" y="226.24" fill="#1C1C1E" font-size="12" textLength="115.354" font-family="Helvetica">BOOT_COMPLETED</text></g><!--entity SLEEPLOG--><g class="entity" data-qualified-name="W.SLEEPLOG" id="ent0008" data-source-line="15"><rect x="22.29" y="195" width="167.428" height="44" fill="#EAF8EF" style="stroke:#1DA34A;stroke-width:1;" rx="5" ry="5"/><text x="32.29" y="214.24" fill="#1C1C1E" font-size="12" textLength="50.713" font-family="Helvetica">SleepLog</text><text x="32.29" y="226.24" fill="#1C1C1E" font-size="12" textLength="147.428" font-family="Helvetica">the night, gated on the wrist</text></g><!--entity SVC--><g class="entity" data-qualified-name="W.SVC" id="ent0009" data-source-line="16"><rect x="498.97" y="292" width="142.051" height="44" fill="#EAF8EF" style="stroke:#1DA34A;stroke-width:1;" rx="5" ry="5"/><text x="508.97" y="311.24" fill="#1C1C1E" font-size="12" textLength="74.701" font-family="Helvetica">BridgeService</text><text x="508.97" y="323.24" fill="#1C1C1E" font-size="12" textLength="122.051" font-family="Helvetica">lifecycle · orchestration</text></g><!--entity LINK--><g class="entity" data-qualified-name="W.LINK" id="ent0010" data-source-line="17"><rect x="326.32" y="383" width="159.365" height="44" fill="#EAF8EF" style="stroke:#1DA34A;stroke-width:1;" rx="5" ry="5"/><text x="336.32" y="402.24" fill="#1C1C1E" font-size="12" textLength="44.689" font-family="Helvetica">GattLink</text><text x="336.32" y="414.24" fill="#1C1C1E" font-size="12" textLength="139.365" font-family="Helvetica">GATT server · flow control</text></g><!--entity ADV--><g class="entity" data-qualified-name="W.ADV" id="ent0011" data-source-line="18"><rect x="507.31" y="383" width="125.375" height="44" fill="#EAF8EF" style="stroke:#1DA34A;stroke-width:1;" rx="5" ry="5"/><text x="517.31" y="402.24" fill="#1C1C1E" font-size="12" textLength="54.018" font-family="Helvetica">Advertiser</text><text x="517.31" y="414.24" fill="#1C1C1E" font-size="12" textLength="105.375" font-family="Helvetica">30s burst, 5min rest</text></g><!--entity TRAY--><g class="entity" data-qualified-name="W.TRAY" id="ent0012" data-source-line="19"><rect x="654.63" y="383" width="152.732" height="44" fill="#EAF8EF" style="stroke:#1DA34A;stroke-width:1;" rx="5" ry="5"/><text x="664.63" y="402.24" fill="#1C1C1E" font-size="12" textLength="95.033" font-family="Helvetica">AncsClient + Tray</text><text x="664.63" y="414.24" fill="#1C1C1E" font-size="12" textLength="132.732" font-family="Helvetica">notifications · call actions</text></g><!--entity WUI--><g class="entity" data-qualified-name="W.WUI" id="ent0013" data-source-line="20"><rect x="867.32" y="298" width="107.357" height="32" fill="#EAF8EF" style="stroke:#1DA34A;stroke-width:1;" rx="5" ry="5"/><text x="877.32" y="317.24" fill="#1C1C1E" font-size="12" textLength="87.357" font-family="Helvetica">DreamFitScreen</text></g><!--entity BC--><g class="entity" data-qualified-name="P.BC" id="ent0029" data-source-line="41"><rect x="407.96" y="531" width="154.08" height="44" fill="#EAF2FC" style="stroke:#0A6ED1;stroke-width:1;" rx="5" ry="5"/><text x="417.96" y="550.24" fill="#1C1C1E" font-size="12" textLength="73.371" font-family="Helvetica">BridgeCentral</text><text x="417.96" y="562.24" fill="#1C1C1E" font-size="12" textLength="134.08" font-family="Helvetica">LinkPhase state machine</text></g><!--entity STORE--><g class="entity" data-qualified-name="P.STORE" id="ent0030" data-source-line="42"><rect x="405.14" y="713" width="171.723" height="44" fill="#EAF2FC" style="stroke:#0A6ED1;stroke-width:1;" rx="5" ry="5"/><text x="415.14" y="732.24" fill="#1C1C1E" font-size="12" textLength="151.723" font-family="Helvetica">HealthMirror + HealthKitSink</text><text x="415.14" y="744.24" fill="#1C1C1E" font-size="12" textLength="136.734" font-family="Helvetica">one writer · dedupe · retry</text></g><!--entity MODEL--><g class="entity" data-qualified-name="P.MODEL" id="ent0031" data-source-line="43"><rect x="440.97" y="622" width="100.051" height="44" fill="#EAF2FC" style="stroke:#0A6ED1;stroke-width:1;" rx="5" ry="5"/><text x="450.97" y="641.24" fill="#1C1C1E" font-size="12" textLength="63.369" font-family="Helvetica">HealthStore</text><text x="450.97" y="653.24" fill="#1C1C1E" font-size="12" textLength="80.051" font-family="Helvetica">published facts</text></g><!--entity UI--><g class="entity" data-qualified-name="P.UI" id="ent0032" data-source-line="44"><rect x="598.64" y="713" width="146.721" height="44" fill="#EAF2FC" style="stroke:#0A6ED1;stroke-width:1;" rx="5" ry="5"/><text x="608.64" y="732.24" fill="#1C1C1E" font-size="12" textLength="68.039" font-family="Helvetica">ContentView</text><text x="608.64" y="744.24" fill="#1C1C1E" font-size="12" textLength="126.721" font-family="Helvetica">ring · chart · sleep · tiles</text></g><!--entity HK--><g class="entity" data-qualified-name="P.HK" id="ent0033" data-source-line="45"><rect x="455.64" y="815" width="88.713" height="32" fill="#F2F2F7" style="stroke:#C7C7CC;stroke-width:1;" rx="5" ry="5"/><text x="465.64" y="834.24" fill="#6E6E73" font-size="12" textLength="68.713" font-family="Helvetica">Apple Health</text></g><!--entity IOSANCS--><g class="entity" data-qualified-name="P.IOSANCS" id="ent0034" data-source-line="46"><rect x="668.66" y="537" width="76.678" height="32" fill="#F2F2F7" style="stroke:#C7C7CC;stroke-width:1;" rx="5" ry="5"/><text x="678.66" y="556.24" fill="#6E6E73" font-size="12" textLength="56.678" font-family="Helvetica">iOS ANCS</text></g><!--link HS to DAYLOG--><g class="link" data-entity-1="ent0002" data-entity-2="ent0005" id="lnk14" data-source-line="22" data-link-type="dependency"><path d="M399.79,115.81 C493.37,130.53 655,157.62 792,189 C795.49,189.8 794.191,189.469 797.771,190.339" style="stroke:#1DA34A;stroke-width:1;" fill="none" id="HS-to-DAYLOG"/><polygon points="802.63,191.52,794.829,185.508,797.771,190.339,792.94,193.282,802.63,191.52" fill="#1DA34A" style="stroke:#1DA34A;stroke-width:1;stroke-linejoin:miter;stroke-miterlimit:10;"/><text x="703.67" y="162.97" fill="#6E6E73" font-size="11" textLength="129.019" font-family="Helvetica">absolute totals, ambient hr</text></g><!--link HS to DQ--><g class="link" data-entity-1="ent0002" data-entity-2="ent0006" id="lnk15" data-source-line="23" data-link-type="dependency"><path d="M319.31,131.4 C317.59,148.88 315.871,166.474 314.151,183.904" style="stroke:#1DA34A;stroke-width:1;" fill="none" id="HS-to-DQ"/><polygon points="313.66,188.88,318.524,180.316,314.151,183.904,310.563,179.531,313.66,188.88" fill="#1DA34A" style="stroke:#1DA34A;stroke-width:1;stroke-linejoin:miter;stroke-miterlimit:10;"/><text x="344.465" y="157.47" fill="#6E6E73" font-size="11" textLength="96.621" font-family="Helvetica">deltas, one per step</text><text x="318.49" y="168.47" fill="#6E6E73" font-size="11" textLength="148.57" font-family="Helvetica">merged to 5 min · beats, 1/min</text></g><!--link HS to SLEEPLOG--><g class="link" data-entity-1="ent0002" data-entity-2="ent0008" id="lnk16" data-source-line="24" data-link-type="dependency"><path d="M267.67,131.32 C257.12,136.76 246.18,142.49 236,148 C217.09,158.23 212.96,161.86 194,172 C179.84,179.58 168.697,185.293 154.587,192.313" style="stroke:#1DA34A;stroke-width:1;" fill="none" id="HS-to-SLEEPLOG"/><polygon points="150.11,194.54,159.95,194.112,154.587,192.313,156.386,186.95,150.11,194.54" fill="#1DA34A" style="stroke:#1DA34A;stroke-width:1;stroke-linejoin:miter;stroke-miterlimit:10;"/><text x="237" y="162.97" fill="#6E6E73" font-size="11" textLength="73.38" font-family="Helvetica">asleep / awake</text></g><!--link BOOT to SVC--><g class="link" data-entity-1="ent0007" data-entity-2="ent0009" id="lnk17" data-source-line="25" data-link-type="dependency"><path d="M657.75,239.27 C644.18,245.64 630.09,253.28 618,262 C606.46,270.32 598.712,277.909 590.152,287.799" style="stroke:#8E8E93;stroke-width:1;" fill="none" id="BOOT-to-SVC"/><polygon points="586.88,291.58,595.794,287.393,590.152,287.799,589.745,282.157,586.88,291.58" fill="#8E8E93" style="stroke:#8E8E93;stroke-width:1;stroke-linejoin:miter;stroke-miterlimit:10;"/><text x="619" y="271.47" fill="#6E6E73" font-size="11" textLength="89.88" font-family="Helvetica">start after a reboot</text></g><!--link OFFBODY to SLEEPLOG--><g class="link" data-entity-1="ent0004" data-entity-2="ent0008" id="lnk18" data-source-line="26" data-link-type="dependency"><path d="M92.56,125.23 C92,138.69 91.92,156.44 94,172 C95.01,179.53 95.584,182.79 97.614,189.94" style="stroke:#BF5AF2;stroke-width:1;" fill="none" id="OFFBODY-to-SLEEPLOG"/><polygon points="98.98,194.75,100.37,185,97.614,189.94,92.674,187.185,98.98,194.75" fill="#BF5AF2" style="stroke:#BF5AF2;stroke-width:1;stroke-linejoin:miter;stroke-miterlimit:10;"/><text x="95" y="162.97" fill="#6E6E73" font-size="11" textLength="97.217" font-family="Helvetica">gates every session</text></g><!--link SENS to SVC--><g class="link" data-entity-1="ent0003" data-entity-2="ent0009" id="lnk19" data-source-line="27" data-link-type="dependency"><path d="M521.09,239.24 C518.68,250.38 517.74,263.97 523,275 C525.98,281.25 526.896,283.387 532.036,288.187" style="stroke:#B23A34;stroke-width:1;" fill="none" id="SENS-to-SVC"/><polygon points="535.69,291.6,531.842,282.534,532.036,288.187,526.382,288.381,535.69,291.6" fill="#B23A34" style="stroke:#B23A34;stroke-width:1;stroke-linejoin:miter;stroke-miterlimit:10;"/><text x="524" y="271.47" fill="#6E6E73" font-size="11" textLength="66.645" font-family="Helvetica">live heart rate</text></g><!--link DAYLOG to SVC--><g class="link" data-entity-1="ent0005" data-entity-2="ent0009" id="lnk20" data-source-line="28" data-link-type="dependency"><path d="M802.53,242.16 C771.8,250.88 743.02,259.26 736,262 C723.96,266.69 722.07,270.4 710,275 C688.12,283.35 668.493,289.358 646.213,295.268" style="stroke:#1DA34A;stroke-width:1;" fill="none" id="DAYLOG-to-SVC"/><polygon points="641.38,296.55,651.105,298.109,646.213,295.268,649.054,290.376,641.38,296.55" fill="#1DA34A" style="stroke:#1DA34A;stroke-width:1;stroke-linejoin:miter;stroke-miterlimit:10;"/><text x="737" y="271.47" fill="#6E6E73" font-size="11" textLength="51.971" font-family="Helvetica">day record</text></g><!--link SVC to DAYLOG--><g class="link" data-entity-1="ent0009" data-entity-2="ent0005" id="lnk22" data-source-line="30" data-link-type="dependency"><path d="M641.3,307.29 C685.21,302.17 742.07,292.62 790,275 C800.66,271.08 802.18,267.71 812,262 C821.32,256.58 826.962,253.326 836.542,247.836" style="stroke:#1DA34A;stroke-width:1;" fill="none" id="SVC-to-DAYLOG"/><polygon points="840.88,245.35,831.082,246.354,836.542,247.836,835.06,253.295,840.88,245.35" fill="#1DA34A" style="stroke:#1DA34A;stroke-width:1;stroke-linejoin:miter;stroke-miterlimit:10;"/><text x="813" y="271.47" fill="#6E6E73" font-size="11" textLength="101.476" font-family="Helvetica">confirmed, write it off</text></g><!--link DQ to SVC--><g class="link" data-entity-1="ent0006" data-entity-2="ent0009" id="lnk21" data-source-line="29" data-link-type="dependency"><path d="M378.09,245.49 C402.22,255.13 429.72,265.83 455,275 C470.42,280.59 482.375,284.732 498.135,289.972" style="stroke:#1DA34A;stroke-width:1;" fill="none" id="DQ-to-SVC"/><polygon points="502.88,291.55,495.602,284.915,498.135,289.972,493.078,292.506,502.88,291.55" fill="#1DA34A" style="stroke:#1DA34A;stroke-width:1;stroke-linejoin:miter;stroke-miterlimit:10;"/><text x="456" y="271.47" fill="#6E6E73" font-size="11" textLength="58.094" font-family="Helvetica">one window</text></g><!--link SLEEPLOG to SVC--><g class="link" data-entity-1="ent0008" data-entity-2="ent0009" id="lnk23" data-source-line="31" data-link-type="dependency"><path d="M178.96,239.44 C186.38,241.41 193.83,243.3 201,245 C303.68,269.35 419.233,289.318 493.883,301.288" style="stroke:#BF5AF2;stroke-width:1;" fill="none" id="SLEEPLOG-to-SVC"/><polygon points="498.82,302.08,490.567,296.706,493.883,301.288,489.3,304.605,498.82,302.08" fill="#BF5AF2" style="stroke:#BF5AF2;stroke-width:1;stroke-linejoin:miter;stroke-miterlimit:10;"/><text x="343.25" y="271.47" fill="#6E6E73" font-size="11" textLength="58.706" font-family="Helvetica">closed night</text></g><!--link DAYLOG to WUI--><g class="link" data-entity-1="ent0005" data-entity-2="ent0013" id="lnk24" data-source-line="32" data-link-type="dependency"><path d="M911.71,245.05 C915.09,250.38 918.08,256.14 920,262 C923.81,273.61 924.195,282.546 923.375,292.896" style="stroke:#8E8E93;stroke-width:1;" fill="none" id="DAYLOG-to-WUI"/><polygon points="922.98,297.88,927.678,289.224,923.375,292.896,919.703,288.592,922.98,297.88" fill="#8E8E93" style="stroke:#8E8E93;stroke-width:1;stroke-linejoin:miter;stroke-miterlimit:10;"/></g><!--link SVC to LINK--><g class="link" data-entity-1="ent0009" data-entity-2="ent0010" id="lnk25" data-source-line="33" data-link-type="dependency"><path d="M530.72,336.32 C504.94,350.31 475.744,366.144 449.924,380.164" style="stroke:#8E8E93;stroke-width:1;" fill="none" id="SVC-to-LINK"/><polygon points="445.53,382.55,455.348,381.771,449.924,380.164,451.531,374.74,445.53,382.55" fill="#8E8E93" style="stroke:#8E8E93;stroke-width:1;stroke-linejoin:miter;stroke-miterlimit:10;"/><text x="498.82" y="362.47" fill="#6E6E73" font-size="11" textLength="23.853" font-family="Helvetica">send</text></g><!--link SVC to ADV--><g class="link" data-entity-1="ent0009" data-entity-2="ent0011" id="lnk26" data-source-line="34" data-link-type="dependency"><path d="M570,336.09 C570,350.18 570,363.63 570,377.75" style="stroke:#8E8E93;stroke-width:1;" fill="none" id="SVC-to-ADV"/><polygon points="570,382.75,574,373.75,570,377.75,566,373.75,570,382.75" fill="#8E8E93" style="stroke:#8E8E93;stroke-width:1;stroke-linejoin:miter;stroke-miterlimit:10;"/><text x="571" y="362.47" fill="#6E6E73" font-size="11" textLength="96.604" font-family="Helvetica">off while subscribed</text></g><!--link SVC to TRAY--><!--link BC to MODEL--><g class="link" data-entity-1="ent0029" data-entity-2="ent0031" id="lnk35" data-source-line="48" data-link-type="dependency"><path d="M486.42,575.09 C487.37,589.18 488.284,602.641 489.234,616.761" style="stroke:#0A6ED1;stroke-width:1;" fill="none" id="BC-to-MODEL"/><polygon points="489.57,621.75,492.957,612.502,489.234,616.761,484.975,613.039,489.57,621.75" fill="#0A6ED1" style="stroke:#0A6ED1;stroke-width:1;stroke-linejoin:miter;stroke-miterlimit:10;"/><text x="489.36" y="601.47" fill="#6E6E73" font-size="11" textLength="105.171" font-family="Helvetica">delta · hr · day · sleep</text></g><!--link MODEL to STORE--><g class="link" data-entity-1="ent0031" data-entity-2="ent0030" id="lnk36" data-source-line="49" data-link-type="dependency"><path d="M491,666.09 C491,680.18 491,693.63 491,707.75" style="stroke:#0A6ED1;stroke-width:1;" fill="none" id="MODEL-to-STORE"/><polygon points="491,712.75,495,703.75,491,707.75,487,703.75,491,712.75" fill="#0A6ED1" style="stroke:#0A6ED1;stroke-width:1;stroke-linejoin:miter;stroke-miterlimit:10;"/><text x="492" y="692.47" fill="#6E6E73" font-size="11" textLength="46.465" font-family="Helvetica">deliveries</text></g><!--link STORE to HK--><g class="link" data-entity-1="ent0030" data-entity-2="ent0033" id="lnk37" data-source-line="50" data-link-type="dependency"><path d="M451.61,757.41 C446.12,762.13 441.26,767.65 438,774 C433.13,783.49 432.45,788.89 438,798 C442.22,804.93 444.238,807.783 451.178,812.113" style="stroke:#0A6ED1;stroke-width:1;" fill="none" id="STORE-to-HK"/><polygon points="455.42,814.76,449.902,806.602,451.178,812.113,445.667,813.39,455.42,814.76" fill="#0A6ED1" style="stroke:#0A6ED1;stroke-width:1;stroke-linejoin:miter;stroke-miterlimit:10;"/><text x="441.75" y="783.47" fill="#6E6E73" font-size="11" textLength="80.099" font-family="Helvetica">write each once,</text><text x="439" y="794.47" fill="#6E6E73" font-size="11" textLength="85.599" font-family="Helvetica">over its own span</text></g><!--link STORE to HK--><g class="link" data-entity-1="ent0030" data-entity-2="ent0033" id="lnk38" data-source-line="51" data-link-type="dependency"><path d="M515.61,757.35 C519.86,762.35 523.65,767.98 526,774 C529.88,783.94 529.57,787.95 526,798 C523.84,804.07 523.19,805.988 519.1,810.898" style="stroke:#8E8E93;stroke-width:1;stroke-dasharray:7,7;" fill="none" id="STORE-to-HK-1"/><polygon points="515.9,814.74,524.734,810.385,519.1,810.898,518.587,805.265,515.9,814.74" fill="#8E8E93" style="stroke:#8E8E93;stroke-width:1;stroke-linejoin:miter;stroke-miterlimit:10;"/><text x="529.79" y="783.47" fill="#6E6E73" font-size="11" textLength="89.268" font-family="Helvetica">read own samples</text><text x="533.759" y="794.47" fill="#6E6E73" font-size="11" textLength="81.329" font-family="Helvetica">for the audit only</text></g><!--link MODEL to UI--><g class="link" data-entity-1="ent0031" data-entity-2="ent0032" id="lnk39" data-source-line="52" data-link-type="dependency"><path d="M538.837,668.526 C567.287,682.516 595.383,696.323 623.883,710.343" style="stroke:#8E8E93;stroke-width:1;" fill="none" id="MODEL-UI"/><polygon points="534.35,666.32,540.661,673.881,538.837,668.526,544.191,666.702,534.35,666.32" fill="#8E8E93" style="stroke:#8E8E93;stroke-width:1;stroke-linejoin:miter;stroke-miterlimit:10;"/><polygon points="628.37,712.55,622.06,704.988,623.883,710.343,618.529,712.167,628.37,712.55" fill="#8E8E93" style="stroke:#8E8E93;stroke-width:1;stroke-linejoin:miter;stroke-miterlimit:10;"/><text x="593.34" y="692.47" fill="#6E6E73" font-size="11" textLength="77.043" font-family="Helvetica">facts / step goal</text></g><!--link LINK to BC--><g class="link" data-entity-1="ent0010" data-entity-2="ent0029" id="lnk40" data-source-line="55" data-link-type="dependency"><path d="M419.87,431.627 C434.85,459.307 456.13,498.653 471.12,526.343" style="stroke:#0A6ED1;stroke-width:3;" fill="none" id="LINK-BC"/><polygon points="417.49,427.23,418.256,437.049,419.87,431.627,425.291,433.241,417.49,427.23" fill="#0A6ED1" style="stroke:#0A6ED1;stroke-width:3;stroke-linejoin:miter;stroke-miterlimit:10;"/><polygon points="473.5,530.74,472.733,520.921,471.12,526.343,465.698,524.73,473.5,530.74" fill="#0A6ED1" style="stroke:#0A6ED1;stroke-width:3;stroke-linejoin:miter;stroke-miterlimit:10;"/><text x="481.066" y="468.47" fill="#6E6E73" font-size="11" textLength="85.567" font-weight="700" font-family="Helvetica">encrypted GATT</text><text x="446.5" y="479.47" fill="#6E6E73" font-size="11" textLength="154.698" font-family="Helvetica">delta, hr, day, sleep / sync, goal</text></g><!--link IOSANCS to TRAY--><g class="link" data-entity-1="ent0034" data-entity-2="ent0012" id="lnk41" data-source-line="56" data-link-type="dependency"><path d="M709.54,536.56 C713.85,510.32 721.809,461.904 726.699,432.164" style="stroke:#8E8E93;stroke-width:1;stroke-dasharray:7,7;" fill="none" id="IOSANCS-to-TRAY"/><polygon points="727.51,427.23,722.103,435.462,726.699,432.164,729.997,436.76,727.51,427.23" fill="#8E8E93" style="stroke:#8E8E93;stroke-width:1;stroke-linejoin:miter;stroke-miterlimit:10;"/><text x="722.86" y="473.97" fill="#6E6E73" font-size="11" textLength="30.562" font-family="Helvetica">ANCS</text></g><?plantuml-src XLNTRXf75BxdAKxTYqeEpe_jH2bA8u71TXHiR4DZHQMgXjq3E_8oivgP3K5LfJv4twNtVPG-IRyp0xP98RbZX_FxdNE-xpjjihBEcNnObloqgkTbez3ncntRiAou4NGecRgErPnETQ1___oBhlHdBkbMXQoWOmgMz5LX3JSQ_awRIZcO6fkpvueE3nyzEcNkvF7ekD6eL7QdPanxcy7--PjkMJaQ3FT8URgbtnj4cPrNY6y2xPspAaD1GtQVTCPUx2lblVx4OuEgg_YIQn-KoLX-JqjhdH-R0b43AWZnLML1Vz9XYKxn4bET3-dD6_uSthxzPiOBLhvsV59gM8nDYUpq4Bz9Yq83iuMqn7aCFknTxWXlfzE3YSrH2HjltTWih3Da7H0CqNLmUjePT3zkz-wgPT_Elj6wOn-qcT7vJRHWgTTnJYNdCtOnIRVziJyuGuvOzF-oS1dKTSqrG5PLnIO_iAPSKcbd4l7LyS7SpsYXJMuNWdIPKss2BYaK34XoRH7DJBMR-vJjUbUcZhNXXZEM2iUcCnYCVZiPN5prUwDUDxhAqoxdOSbSHJWahz6p8ZHfXedaP4siPU40Jnf8lzUx-ahB7QS1pcheCk8fPykiZBXQXxdwW5bhQrAq3oUx0fsf4FhQt8tDMNiqmfGTMbjDPo6m16VB6AJ_xlBzhYZj75v1Uq7bwBcdIUqycdivruPal350k_jXfx_9V5fNUa8ZfvPZW_tIKvt59kBgPAeius7WEyORtRG_xbm98GJmmJ1pp0c4sv_VFRA6EIxgu9VlNtJRHyVjNm_UhfUiHMhYRLdZ4eCDglHDKlD9hArmszokuPBB2i8IwQa2WBBmOpDdDyDqmK0lIQ105nDM0NOldk5xIx3xkQCAB_j2pqWjr1t3DkuMh5_tNlT-F8hMc6jBE0AdhQOWHLA0Uu8bXVdwCE7HENtPFZty8hvidYV6uEIumL5M2efC82w7HwZf8SaN90BB5LoRvKVRN2rHHcPTBcRNsqm4ftIGaXDFsoUnEalEct8Rc0WO7emaFkj6DjkBmRFIUi0UBsoZq0Vai0mFYH-UuuwtXEloRN_B1hUaW1M5-dhYCwSdBDO_nCMb0gjc83bcOckJat0OF52u9ximJV8MZOV2rW4dhptbDYJXaTwKF78C5cmbVa8B444VXujuyjs-F1cISauEr5cFuINsA2ngohMQGSoUtjSFnSpPIFboC8q_7cbRqaLPIxqIjAil1IqHpGb-ErMEZL355Lhaf4mqLrcXJLAeZf1C9H6tQzI5HiaE1vu-t-Cw8_74NP3fkiJ_ULt5cXm7jqpyDHhSzBuUV1Yi0n5MzQJK7h96Kr15uecBGRVNt-Lz0eR3Zm-Q8GrEP4Yeff0znuzqWlW1jU0KBRB8rb3jgWB-gPmasU-tgoB0ZZECHky6mpZFjQKSUboxv-rNlUuBcLjgO4KoKasHaCAshMk4LxBQS4oujTQQgjdBLiJ73RjpMVfqO8o1uZepRc8m8WMhnILVAVFOErr5CrU2zdqGq6wUpDKSQ43TfnYvRAUgSpbUwF9zhMysZWl0jjBKm7d2dpIpgfHzJSfpNt4JTvFT6L3MJz6n8pU_lyycSyjAr5IKR7z_R29UJQ3L5AoQj2PKlpHPCqLVex-jeQWlhJYf_m00?></g></svg>