<svg xmlns="http://www.w3.org/2000/svg" xmlns:xlink="http://www.w3.org/1999/xlink" contentStyleType="text/css" height="709px" preserveAspectRatio="none" style="width:653px;height:709px;background:#FFFFFF;" version="1.1" viewBox="0 0 653 709" width="653px" zoomAndPan="magnify"><title>Dream Fit &#8212; Pixel Watch 4 to iPhone</title><defs/><g><text fill="#1C1C1E" font-family="Helvetica" font-size="16" font-weight="bold" lengthAdjust="spacing" textLength="279.1641" x="179.918" y="22.3203">Dream Fit &#8212; Pixel Watch 4 to iPhone</text><!--cluster W--><g id="cluster_W"><path d="M11,43 L155.8271,43 A7.5,7.5 0 0 1 160.8271,48 L167.8271,62 L333,62 A5,5 0 0 1 338,67 L338,489 A5,5 0 0 1 333,494 L11,494 A5,5 0 0 1 6,489 L6,48 A5,5 0 0 1 11,43 " fill="#FFFFFF" style="stroke:#C7C7CC;stroke-width:1.0;"/><line style="stroke:#C7C7CC;stroke-width:1.0;" x1="6" x2="167.8271" y1="62" y2="62"/><text fill="#6E6E73" font-family="Helvetica" font-size="13" font-weight="bold" lengthAdjust="spacing" textLength="148.8271" x="10" y="55.0103">Pixel Watch 4 &#183; Wear OS</text></g><!--cluster P--><g id="cluster_P"><path d="M367,386 L439.5654,386 A7.5,7.5 0 0 1 444.5654,391 L451.5654,405 L641,405 A5,5 0 0 1 646,410 L646,697 A5,5 0 0 1 641,702 L367,702 A5,5 0 0 1 362,697 L362,391 A5,5 0 0 1 367,386 " fill="#FFFFFF" style="stroke:#C7C7CC;stroke-width:1.0;"/><line style="stroke:#C7C7CC;stroke-width:1.0;" x1="362" x2="451.5654" y1="405" y2="405"/><text fill="#6E6E73" font-family="Helvetica" font-size="13" font-weight="bold" lengthAdjust="spacing" textLength="76.5654" x="366" y="398.0103">iPhone &#183; iOS</text></g><!--entity HS--><g id="elem_HS"><rect fill="#F2F2F7" height="44" rx="5" ry="5" style="stroke:#C7C7CC;stroke-width:1.0;" width="104.0352" x="41.98" y="91"/><text fill="#6E6E73" font-family="Helvetica" font-size="12" lengthAdjust="spacing" textLength="84.0352" x="51.98" y="110.2402">Health Services</text><text fill="#6E6E73" font-family="Helvetica" font-size="12" lengthAdjust="spacing" textLength="80.7012" x="51.98" y="122.2402">STEPS_DAILY</text></g><!--entity SENS--><g id="elem_SENS"><rect fill="#F2F2F7" height="44" rx="5" ry="5" style="stroke:#C7C7CC;stroke-width:1.0;" width="147.4063" x="169.3" y="91"/><text fill="#6E6E73" font-family="Helvetica" font-size="12" lengthAdjust="spacing" textLength="44.0215" x="179.3" y="110.2402">Sensors</text><text fill="#6E6E73" font-family="Helvetica" font-size="12" lengthAdjust="spacing" textLength="127.4063" x="179.3" y="122.2402">heart rate &#183; step counter</text></g><!--entity DAYLOG--><g id="elem_DAYLOG"><rect fill="#EAF8EF" height="56" rx="5" ry="5" style="stroke:#1DA34A;stroke-width:1.0;" width="170.0527" x="25.97" y="182"/><text fill="#1C1C1E" font-family="Helvetica" font-size="12" lengthAdjust="spacing" textLength="41.3613" x="35.97" y="201.2402">DayLog</text><text fill="#1C1C1E" font-family="Helvetica" font-size="12" lengthAdjust="spacing" textLength="150.0527" x="35.97" y="213.2402">steps &#183; resting HR &#183; exercise</text><text fill="#1C1C1E" font-family="Helvetica" font-size="12" lengthAdjust="spacing" textLength="100.3477" x="35.97" y="225.2402">the day's only truth</text></g><!--entity SVC--><g id="elem_SVC"><rect fill="#EAF8EF" height="44" rx="5" ry="5" style="stroke:#1DA34A;stroke-width:1.0;" width="158.709" x="163.65" y="285"/><text fill="#1C1C1E" font-family="Helvetica" font-size="12" lengthAdjust="spacing" textLength="74.7012" x="173.65" y="304.2402">BridgeService</text><text fill="#1C1C1E" font-family="Helvetica" font-size="12" lengthAdjust="spacing" textLength="138.709" x="173.65" y="316.2402">GATT server &#183; link phases</text></g><!--entity ADV--><g id="elem_ADV"><rect fill="#EAF8EF" height="44" rx="5" ry="5" style="stroke:#1DA34A;stroke-width:1.0;" width="125.375" x="22.31" y="434"/><text fill="#1C1C1E" font-family="Helvetica" font-size="12" lengthAdjust="spacing" textLength="54.0176" x="32.31" y="453.2402">Advertiser</text><text fill="#1C1C1E" font-family="Helvetica" font-size="12" lengthAdjust="spacing" textLength="105.375" x="32.31" y="465.2402">30s burst, 5min rest</text></g><!--entity TRAY--><g id="elem_TRAY"><rect fill="#EAF8EF" height="44" rx="5" ry="5" style="stroke:#1DA34A;stroke-width:1.0;" width="152.7324" x="169.63" y="434"/><text fill="#1C1C1E" font-family="Helvetica" font-size="12" lengthAdjust="spacing" textLength="95.0332" x="179.63" y="453.2402">AncsClient + Tray</text><text fill="#1C1C1E" font-family="Helvetica" font-size="12" lengthAdjust="spacing" textLength="132.7324" x="179.63" y="465.2402">notifications &#183; call actions</text></g><!--entity WUI--><g id="elem_WUI"><rect fill="#EAF8EF" height="32" rx="5" ry="5" style="stroke:#1DA34A;stroke-width:1.0;" width="107.3574" x="34.32" y="291"/><text fill="#1C1C1E" font-family="Helvetica" font-size="12" lengthAdjust="spacing" textLength="87.3574" x="44.32" y="310.2402">DreamFitScreen</text></g><!--entity BC--><g id="elem_BC"><rect fill="#EAF2FC" height="44" rx="5" ry="5" style="stroke:#0A6ED1;stroke-width:1.0;" width="154.0801" x="377.96" y="434"/><text fill="#1C1C1E" font-family="Helvetica" font-size="12" lengthAdjust="spacing" textLength="73.3711" x="387.96" y="453.2402">BridgeCentral</text><text fill="#1C1C1E" font-family="Helvetica" font-size="12" lengthAdjust="spacing" textLength="134.0801" x="387.96" y="465.2402">LinkPhase state machine</text></g><!--entity STORE--><g id="elem_STORE"><rect fill="#EAF2FC" height="44" rx="5" ry="5" style="stroke:#0A6ED1;stroke-width:1.0;" width="169.0801" x="378.46" y="540"/><text fill="#1C1C1E" font-family="Helvetica" font-size="12" lengthAdjust="spacing" textLength="149.0801" x="388.46" y="559.2402">HealthStore + HealthKitSink</text><text fill="#1C1C1E" font-family="Helvetica" font-size="12" lengthAdjust="spacing" textLength="138.3867" x="388.46" y="571.2402">step mirror &#183; queue + retry</text></g><!--entity UI--><g id="elem_UI"><rect fill="#EAF2FC" height="44" rx="5" ry="5" style="stroke:#0A6ED1;stroke-width:1.0;" width="109.3789" x="378.31" y="642"/><text fill="#1C1C1E" font-family="Helvetica" font-size="12" lengthAdjust="spacing" textLength="68.0391" x="388.31" y="661.2402">ContentView</text><text fill="#1C1C1E" font-family="Helvetica" font-size="12" lengthAdjust="spacing" textLength="89.3789" x="388.31" y="673.2402">ring &#183; chart &#183; goal</text></g><!--entity HK--><g id="elem_HK"><rect fill="#F2F2F7" height="32" rx="5" ry="5" style="stroke:#C7C7CC;stroke-width:1.0;" width="88.7129" x="509.64" y="648"/><text fill="#6E6E73" font-family="Helvetica" font-size="12" lengthAdjust="spacing" textLength="68.7129" x="519.64" y="667.2402">Apple Health</text></g><!--entity IOSANCS--><g id="elem_IOSANCS"><rect fill="#F2F2F7" height="32" rx="5" ry="5" style="stroke:#C7C7CC;stroke-width:1.0;" width="76.6777" x="553.66" y="440"/><text fill="#6E6E73" font-family="Helvetica" font-size="12" lengthAdjust="spacing" textLength="56.6777" x="563.66" y="459.2402">iOS ANCS</text></g><!--link HS to DAYLOG--><g id="link_HS_DAYLOG"><path d="M92.27,135.25 C91.96,144.47 92.2,155.34 94,165 C95.02,170.47 94.6926,170.4858 96.6026,175.8658 " fill="none" id="HS-to-DAYLOG" style="stroke:#1DA34A;stroke-width:1.0;"/><polygon fill="#1DA34A" points="98.61,181.52,99.3685,171.7004,96.9372,176.8081,91.8295,174.3769,98.61,181.52" style="stroke:#1DA34A;stroke-width:1.0;"/><text fill="#6E6E73" font-family="Helvetica" font-size="11" lengthAdjust="spacing" textLength="65.436" x="95" y="161.4702">absolute total</text></g><!--link SENS to DAYLOG--><g id="link_SENS_DAYLOG"><path d="M211.75,135.33 C203.96,140.72 195.65,146.53 188,152 C174.74,161.48 165.1668,168.4825 152.4568,177.9225 " fill="none" id="SENS-to-DAYLOG" style="stroke:#1DA34A;stroke-width:1.0;"/><polygon fill="#1DA34A" points="147.64,181.5,157.2502,179.3449,151.654,178.5187,152.4801,172.9225,147.64,181.5" style="stroke:#1DA34A;stroke-width:1.0;"/><text fill="#6E6E73" font-family="Helvetica" font-size="11" lengthAdjust="spacing" textLength="47.6953" x="189" y="161.4702">projection</text></g><!--link SENS to SVC--><g id="link_SENS_SVC"><path d="M243,135.28 C243,172.19 243,241.65 243,278.62 " fill="none" id="SENS-to-SVC" style="stroke:#B23A34;stroke-width:1.0;"/><polygon fill="#B23A34" points="243,284.62,247,275.62,243,279.62,239,275.62,243,284.62" style="stroke:#B23A34;stroke-width:1.0;"/><text fill="#6E6E73" font-family="Helvetica" font-size="11" lengthAdjust="spacing" textLength="47.083" x="244" y="212.9702">heart rate</text></g><!--link DAYLOG to SVC--><g id="link_DAYLOG_SVC"><path d="M144.68,238.33 C156.88,247.95 170.89,258.69 184,268 C191.85,273.57 195.4336,276.069 203.6036,281.359 " fill="none" id="DAYLOG-to-SVC" style="stroke:#1DA34A;stroke-width:1.0;"/><polygon fill="#1DA34A" points="208.64,284.62,203.2594,276.3708,204.443,281.9025,198.9113,283.0861,208.64,284.62" style="stroke:#1DA34A;stroke-width:1.0;"/><text fill="#6E6E73" font-family="Helvetica" font-size="11" lengthAdjust="spacing" textLength="51.9707" x="185" y="264.4702">day record</text></g><!--link DAYLOG to WUI--><g id="link_DAYLOG_WUI"><path d="M104.35,238.48 C100.23,255.47 96.5203,270.8081 93.1203,284.8681 " fill="none" id="DAYLOG-to-WUI" style="stroke:#8E8E93;stroke-width:1.0;"/><polygon fill="#8E8E93" points="91.71,290.7,97.7134,282.8923,92.8852,285.8401,89.9375,281.012,91.71,290.7" style="stroke:#8E8E93;stroke-width:1.0;"/></g><!--link SVC to ADV--><g id="link_SVC_ADV"><path d="M165.91,329.5 C156.92,334.03 148.35,339.47 141,346 C114.28,369.74 100.3134,403.5374 92.6334,427.9074 " fill="none" id="SVC-to-ADV" style="stroke:#8E8E93;stroke-width:1.0;"/><polygon fill="#8E8E93" points="90.83,433.63,97.3502,426.2484,92.3328,428.8612,89.7201,423.8439,90.83,433.63" style="stroke:#8E8E93;stroke-width:1.0;"/><text fill="#6E6E73" font-family="Helvetica" font-size="11" lengthAdjust="spacing" textLength="96.6045" x="142" y="360.9702">off while subscribed</text></g><!--link SVC to TRAY--><!--link BC to STORE--><g id="link_BC_STORE"><path d="M456.64,478.3 C458.02,496.24 459.5198,515.8077 460.8998,533.7477 " fill="none" id="BC-to-STORE" style="stroke:#0A6ED1;stroke-width:1.0;"/><polygon fill="#0A6ED1" points="461.36,539.73,464.6579,530.4497,460.9765,534.7447,456.6815,531.0633,461.36,539.73" style="stroke:#0A6ED1;stroke-width:1.0;"/><text fill="#6E6E73" font-family="Helvetica" font-size="11" lengthAdjust="spacing" textLength="36.6846" x="460.95" y="519.4702">hr &#183; day</text></g><!--link STORE to HK--><g id="link_STORE_HK"><path d="M491.94,584.32 C498.18,589.48 504.54,595.19 510,601 C523.64,615.53 533.3044,629.4118 541.5544,642.5218 " fill="none" id="STORE-to-HK" style="stroke:#0A6ED1;stroke-width:1.0;"/><polygon fill="#0A6ED1" points="544.75,647.6,543.342,637.8523,542.087,643.3682,536.5711,642.1132,544.75,647.6" style="stroke:#0A6ED1;stroke-width:1.0;"/><text fill="#6E6E73" font-family="Helvetica" font-size="11" lengthAdjust="spacing" textLength="92.3237" x="529.7962" y="610.4702">read own samples,</text><text fill="#6E6E73" font-family="Helvetica" font-size="11" lengthAdjust="spacing" textLength="92.936" x="529.49" y="621.4702">write the difference</text></g><!--link STORE to UI--><g id="link_STORE_UI"><path d="M436.3196,588.7811 C432.1796,593.8611 432.26,594.94 430,601 C425.17,613.92 424.9736,623.4951 426.9336,635.7651 " fill="none" id="STORE-UI" style="stroke:#8E8E93;stroke-width:1.0;"/><polygon fill="#8E8E93" points="440.11,584.13,431.3236,588.5797,436.9513,588.0059,437.5251,593.6336,440.11,584.13" style="stroke:#8E8E93;stroke-width:1.0;"/><polygon fill="#8E8E93" points="427.88,641.69,430.4103,632.1717,427.0913,636.7526,422.5104,633.4336,427.88,641.69" style="stroke:#8E8E93;stroke-width:1.0;"/><text fill="#6E6E73" font-family="Helvetica" font-size="11" lengthAdjust="spacing" textLength="77.043" x="431" y="615.9702">facts / step goal</text></g><!--link SVC to BC--><g id="link_SVC_BC"><path d="M278.7605,332.7991 C318.9505,360.6691 378.9889,402.3018 419.2089,430.1818 " fill="none" id="SVC-BC" style="stroke:#0A6ED1;stroke-width:3.0;"/><polygon fill="#0A6ED1" points="273.83,329.38,278.9464,337.7956,277.9388,332.2292,283.5051,331.2216,273.83,329.38" style="stroke:#0A6ED1;stroke-width:3.0;"/><polygon fill="#0A6ED1" points="424.14,433.6,419.0221,425.1853,420.0307,430.7515,414.4645,431.7601,424.14,433.6" style="stroke:#0A6ED1;stroke-width:3.0;"/><text fill="#6E6E73" font-family="Helvetica" font-size="11" font-weight="bold" lengthAdjust="spacing" textLength="85.5669" x="334.3884" y="355.4702">encrypted GATT</text><text fill="#6E6E73" font-family="Helvetica" font-size="11" lengthAdjust="spacing" textLength="92.3237" x="331.01" y="366.4702">hr, day / sync, goal</text></g><!--link IOSANCS to TRAY--><g id="link_IOSANCS_TRAY"><path d="M586.68,439.75 C579.74,421.42 565.75,392.29 543,378 C526.72,367.77 519.2,374.24 500,373.17 C440.06,369.81 422.11,359.48 365,378 C329.28,389.58 298.6691,411.1049 275.9191,429.7649 " fill="none" id="IOSANCS-to-TRAY" style="stroke:#8E8E93;stroke-width:1.0;stroke-dasharray:7.0,7.0;"/><polygon fill="#8E8E93" points="271.28,433.57,280.7754,430.9551,275.1459,430.3991,275.7019,424.7696,271.28,433.57" style="stroke:#8E8E93;stroke-width:1.0;"/><text fill="#6E6E73" font-family="Helvetica" font-size="11" lengthAdjust="spacing" textLength="30.5615" x="469" y="360.9702">ANCS</text></g><!--SRC=[TLJRRjj647tNLqpTXm2kaYQMMpY2Qu2wr3Pis8Afs332ebWjH-9Mr2opkwnC507o4VsNlETJ-YMTMTgEPLXltEMPitCvPtumfCiwH_2XAV5DLQ_AJc7Y6HtQq5JO2IQK22E7QWM_cm3_VVaN9kOEIxXHGHUm3y62cHIMiDFnIqELSWmbcwF72lRsdbmwHKkvxErtEfNIIxL0sDaa-_OLRb0vk4ntG7cuWNyw0DgkAkQd03idgCfGG8hkRwFHPvHEnvFqpr5oUduR8qvIE3p4kt1qj1cO8ddhEA1W-i2f19J7kDAAOJLnnJ4-7LziOHYfvjmkCf8GBx4EVJ2qW9ChEU4TEcqyPXGAX5mrhpnOAXi8hWv5v1ubj-UNnyo-bcgVym-SoHTuNrb6nybq2fvFw8I-DBI4gb0UVPldzN0RKP9pJE1KN4QzjnvcjVEX2x-i3CMSOtmokjuQJzeFIoFVFy7KgIOZii7CZLR1M8grQrMMe7GyHxxfLNAxZJ2gXyMJQeT8xM0_d3v1CvpdzlhZZ-z6IMy_-UFrqKEl-g1ctfOrJolOe4f6nWczZAsS_GjZKazmWxqU0mKdFUl3Tm4mw3vqWww5yGIvMzgwV0DsC3uOl-y9Z4kGLnYySIsDxOETps5T6BQEhsTUEpD3uNaL-mayHdO869gnyd90dZj7W0aicJLrmLjOcr3OEa0eZ8VSXjOy304bbnZ9WgqaJWJ7HXRNWc8-EISNmnIKStODsbdFiedNwy9oJhbH2pRacyVysVKvagGlS-nyVkBFrjioStDloibpKxRA7VAtKsL6vopLYIYLtIKsMobT6C8OEn3LLiBuN2IjizDW7RBisjCPQuR9Mi_1od0vqGoVQgm5vJ2ufhN3zF9gl8rwQDdU5AuDhZDoObbHS24ou8-5LMNaY99yaI2fAkvQcrExPSvUtX7SejZv23gzJECK7f0C7KInl4r-7O_UHQd5j5cJiIoMd4matct0-Ba-5wjoaGTujU9qV3UZjJDY3DatPZxddKqQ7naEDsJ9nVLXpexry7ExzQHkcNJS98_FTLbmUade_MynRY1UsDrbPjTK0NEGlRIxotlKTQD7cAqXtMtf7af-VBgRArzW_g0ivfB__mC0]--></g></svg>