<svg xmlns="http://www.w3.org/2000/svg" xmlns:xlink="http://www.w3.org/1999/xlink" version="1.1" data-diagram-type="DESCRIPTION" style="width:598px;height:867px;background:#FFFFFF;" width="598px" height="867px" viewBox="0 0 598 867" zoomAndPan="magnify" preserveAspectRatio="none" contentStyleType="text/css"><?plantuml 1.2026.8?><defs/><g font-family="sans-serif" lengthAdjust="spacing"><g class="title" data-source-line="3"><text x="155.918" y="22.32" fill="#1C1C1E" font-size="16" textLength="279.164" font-weight="700" font-family="Helvetica">Dream Fit — Pixel Watch 4 to iPhone</text></g><!--cluster W--><g class="cluster" data-qualified-name="W" id="ent0001" data-source-line="8"><path d="M11,43 L155.827,43 A7.5,7.5 0 0 1 160.827,48 L167.827,62 L578,62 A5,5 0 0 1 583,67 L583,427 A5,5 0 0 1 578,432 L11,432 A5,5 0 0 1 6,427 L6,48 A5,5 0 0 1 11,43" style="stroke:#C7C7CC;stroke-width:1;" fill="#FFF"/><line x1="6" y1="62" x2="167.827" y2="62" style="stroke:#C7C7CC;stroke-width:1;"/><text x="10" y="55.01" fill="#6E6E73" font-size="13" textLength="148.827" font-weight="700" font-family="Helvetica">Pixel Watch 4 · Wear OS</text></g><!--cluster P--><g class="cluster" data-qualified-name="P" id="ent0022" data-source-line="34"><path d="M131,488 L203.565,488 A7.5,7.5 0 0 1 208.565,493 L215.565,507 L493,507 A5,5 0 0 1 498,512 L498,847 A5,5 0 0 1 493,852 L131,852 A5,5 0 0 1 126,847 L126,493 A5,5 0 0 1 131,488" style="stroke:#C7C7CC;stroke-width:1;" fill="#FFF"/><line x1="126" y1="507" x2="215.565" y2="507" style="stroke:#C7C7CC;stroke-width:1;"/><text x="130" y="500.01" fill="#6E6E73" font-size="13" textLength="76.565" font-weight="700" font-family="Helvetica">iPhone · iOS</text></g><!--entity HS--><g class="entity" data-qualified-name="W.HS" id="ent0002" data-source-line="9"><rect x="217.64" y="75" width="154.725" height="56" fill="#F2F2F7" style="stroke:#C7C7CC;stroke-width:1;" rx="5" ry="5"/><text x="227.64" y="94.24" fill="#6E6E73" font-size="12" textLength="134.725" font-family="Helvetica">Health Services · passive</text><text x="227.64" y="106.24" fill="#6E6E73" font-size="12" textLength="122.725" font-family="Helvetica">steps · distance · floors</text><text x="227.64" y="118.24" fill="#6E6E73" font-size="12" textLength="127.389" font-family="Helvetica">heart rate · activity state</text></g><!--entity SENS--><g class="entity" data-qualified-name="W.SENS" id="ent0003" data-source-line="10"><rect x="211.3" y="184" width="191.404" height="44" fill="#F2F2F7" style="stroke:#C7C7CC;stroke-width:1;" rx="5" ry="5"/><text x="221.3" y="203.24" fill="#6E6E73" font-size="12" textLength="171.404" font-family="Helvetica">Health Services · MeasureClient</text><text x="221.3" y="215.24" fill="#6E6E73" font-size="12" textLength="154.746" font-family="Helvetica">live heart rate, while watched</text></g><!--entity OFFBODY--><g class="entity" data-qualified-name="W.OFFBODY" id="ent0004" data-source-line="11"><rect x="54.64" y="81" width="102.711" height="44" fill="#F2F2F7" style="stroke:#C7C7CC;stroke-width:1;" rx="5" ry="5"/><text x="64.64" y="100.24" fill="#6E6E73" font-size="12" textLength="82.711" font-family="Helvetica">off-body sensor</text><text x="64.64" y="112.24" fill="#6E6E73" font-size="12" textLength="60.029" font-family="Helvetica">worn or not</text></g><!--entity DAYLOG--><g class="entity" data-qualified-name="W.DAYLOG" id="ent0005" data-source-line="12"><rect x="424.64" y="178" width="142.725" height="56" fill="#EAF8EF" style="stroke:#1DA34A;stroke-width:1;" rx="5" ry="5"/><text x="434.64" y="197.24" fill="#1C1C1E" font-size="12" textLength="41.361" font-family="Helvetica">DayLog</text><text x="434.64" y="209.24" fill="#1C1C1E" font-size="12" textLength="122.725" font-family="Helvetica">steps · distance · floors</text><text x="434.64" y="221.24" fill="#1C1C1E" font-size="12" textLength="111.369" font-family="Helvetica">resting HR · exercise</text></g><!--entity SLEEPLOG--><g class="entity" data-qualified-name="W.SLEEPLOG" id="ent0006" data-source-line="13"><rect x="22.29" y="184" width="167.428" height="44" fill="#EAF8EF" style="stroke:#1DA34A;stroke-width:1;" rx="5" ry="5"/><text x="32.29" y="203.24" fill="#1C1C1E" font-size="12" textLength="50.713" font-family="Helvetica">SleepLog</text><text x="32.29" y="215.24" fill="#1C1C1E" font-size="12" textLength="147.428" font-family="Helvetica">the night, gated on the wrist</text></g><!--entity SVC--><g class="entity" data-qualified-name="W.SVC" id="ent0007" data-source-line="14"><rect x="235.97" y="281" width="142.051" height="44" fill="#EAF8EF" style="stroke:#1DA34A;stroke-width:1;" rx="5" ry="5"/><text x="245.97" y="300.24" fill="#1C1C1E" font-size="12" textLength="74.701" font-family="Helvetica">BridgeService</text><text x="245.97" y="312.24" fill="#1C1C1E" font-size="12" textLength="122.051" font-family="Helvetica">lifecycle · orchestration</text></g><!--entity LINK--><g class="entity" data-qualified-name="W.LINK" id="ent0008" data-source-line="15"><rect x="63.32" y="372" width="159.365" height="44" fill="#EAF8EF" style="stroke:#1DA34A;stroke-width:1;" rx="5" ry="5"/><text x="73.32" y="391.24" fill="#1C1C1E" font-size="12" textLength="44.689" font-family="Helvetica">GattLink</text><text x="73.32" y="403.24" fill="#1C1C1E" font-size="12" textLength="139.365" font-family="Helvetica">GATT server · flow control</text></g><!--entity ADV--><g class="entity" data-qualified-name="W.ADV" id="ent0009" data-source-line="16"><rect x="244.31" y="372" width="125.375" height="44" fill="#EAF8EF" style="stroke:#1DA34A;stroke-width:1;" rx="5" ry="5"/><text x="254.31" y="391.24" fill="#1C1C1E" font-size="12" textLength="54.018" font-family="Helvetica">Advertiser</text><text x="254.31" y="403.24" fill="#1C1C1E" font-size="12" textLength="105.375" font-family="Helvetica">30s burst, 5min rest</text></g><!--entity TRAY--><g class="entity" data-qualified-name="W.TRAY" id="ent0010" data-source-line="17"><rect x="391.63" y="372" width="152.732" height="44" fill="#EAF8EF" style="stroke:#1DA34A;stroke-width:1;" rx="5" ry="5"/><text x="401.63" y="391.24" fill="#1C1C1E" font-size="12" textLength="95.033" font-family="Helvetica">AncsClient + Tray</text><text x="401.63" y="403.24" fill="#1C1C1E" font-size="12" textLength="132.732" font-family="Helvetica">notifications · call actions</text></g><!--entity WUI--><g class="entity" data-qualified-name="W.WUI" id="ent0011" data-source-line="18"><rect x="442.32" y="287" width="107.357" height="32" fill="#EAF8EF" style="stroke:#1DA34A;stroke-width:1;" rx="5" ry="5"/><text x="452.32" y="306.24" fill="#1C1C1E" font-size="12" textLength="87.357" font-family="Helvetica">DreamFitScreen</text></g><!--entity BC--><g class="entity" data-qualified-name="P.BC" id="ent0023" data-source-line="35"><rect x="144.96" y="520" width="154.08" height="44" fill="#EAF2FC" style="stroke:#0A6ED1;stroke-width:1;" rx="5" ry="5"/><text x="154.96" y="539.24" fill="#1C1C1E" font-size="12" textLength="73.371" font-family="Helvetica">BridgeCentral</text><text x="154.96" y="551.24" fill="#1C1C1E" font-size="12" textLength="134.08" font-family="Helvetica">LinkPhase state machine</text></g><!--entity STORE--><g class="entity" data-qualified-name="P.STORE" id="ent0024" data-source-line="36"><rect x="142.14" y="702" width="171.723" height="44" fill="#EAF2FC" style="stroke:#0A6ED1;stroke-width:1;" rx="5" ry="5"/><text x="152.14" y="721.24" fill="#1C1C1E" font-size="12" textLength="151.723" font-family="Helvetica">HealthMirror + HealthKitSink</text><text x="152.14" y="733.24" fill="#1C1C1E" font-size="12" textLength="93.381" font-family="Helvetica">diff · queue · retry</text></g><!--entity MODEL--><g class="entity" data-qualified-name="P.MODEL" id="ent0025" data-source-line="37"><rect x="177.97" y="611" width="100.051" height="44" fill="#EAF2FC" style="stroke:#0A6ED1;stroke-width:1;" rx="5" ry="5"/><text x="187.97" y="630.24" fill="#1C1C1E" font-size="12" textLength="63.369" font-family="Helvetica">HealthStore</text><text x="187.97" y="642.24" fill="#1C1C1E" font-size="12" textLength="80.051" font-family="Helvetica">published facts</text></g><!--entity UI--><g class="entity" data-qualified-name="P.UI" id="ent0026" data-source-line="38"><rect x="335.64" y="702" width="146.721" height="44" fill="#EAF2FC" style="stroke:#0A6ED1;stroke-width:1;" rx="5" ry="5"/><text x="345.64" y="721.24" fill="#1C1C1E" font-size="12" textLength="68.039" font-family="Helvetica">ContentView</text><text x="345.64" y="733.24" fill="#1C1C1E" font-size="12" textLength="126.721" font-family="Helvetica">ring · chart · sleep · tiles</text></g><!--entity HK--><g class="entity" data-qualified-name="P.HK" id="ent0027" data-source-line="39"><rect x="183.64" y="804" width="88.713" height="32" fill="#F2F2F7" style="stroke:#C7C7CC;stroke-width:1;" rx="5" ry="5"/><text x="193.64" y="823.24" fill="#6E6E73" font-size="12" textLength="68.713" font-family="Helvetica">Apple Health</text></g><!--entity IOSANCS--><g class="entity" data-qualified-name="P.IOSANCS" id="ent0028" data-source-line="40"><rect x="405.66" y="526" width="76.678" height="32" fill="#F2F2F7" style="stroke:#C7C7CC;stroke-width:1;" rx="5" ry="5"/><text x="415.66" y="545.24" fill="#6E6E73" font-size="12" textLength="56.678" font-family="Helvetica">iOS ANCS</text></g><!--link HS to DAYLOG--><g class="link" data-entity-1="ent0002" data-entity-2="ent0005" id="lnk12" data-source-line="20" data-link-type="dependency"><path d="M349.66,131.47 C378.14,145.78 408.402,160.985 436.882,175.295" style="stroke:#1DA34A;stroke-width:1;" fill="none" id="HS-to-DAYLOG"/><polygon points="441.35,177.54,435.104,169.925,436.882,175.295,431.512,177.073,441.35,177.54" fill="#1DA34A" style="stroke:#1DA34A;stroke-width:1;stroke-linejoin:miter;stroke-miterlimit:10;"/><text x="408.53" y="157.47" fill="#6E6E73" font-size="11" textLength="129.019" font-family="Helvetica">absolute totals, ambient hr</text></g><!--link HS to SLEEPLOG--><g class="link" data-entity-1="ent0002" data-entity-2="ent0006" id="lnk13" data-source-line="21" data-link-type="dependency"><path d="M257.46,131.42 C243,141.37 226.1,152.3 210,161 C194.91,169.16 182.588,174.939 166.848,181.569" style="stroke:#1DA34A;stroke-width:1;" fill="none" id="HS-to-SLEEPLOG"/><polygon points="162.24,183.51,172.087,183.703,166.848,181.569,168.981,176.33,162.24,183.51" fill="#1DA34A" style="stroke:#1DA34A;stroke-width:1;stroke-linejoin:miter;stroke-miterlimit:10;"/><text x="232.8" y="157.47" fill="#6E6E73" font-size="11" textLength="73.38" font-family="Helvetica">asleep / awake</text></g><!--link OFFBODY to SLEEPLOG--><g class="link" data-entity-1="ent0004" data-entity-2="ent0006" id="lnk14" data-source-line="22" data-link-type="dependency"><path d="M106,125.42 C106,142.56 106,161.48 106,178.61" style="stroke:#BF5AF2;stroke-width:1;" fill="none" id="OFFBODY-to-SLEEPLOG"/><polygon points="106,183.61,110,174.61,106,178.61,102,174.61,106,183.61" fill="#BF5AF2" style="stroke:#BF5AF2;stroke-width:1;stroke-linejoin:miter;stroke-miterlimit:10;"/><text x="107" y="157.47" fill="#6E6E73" font-size="11" textLength="97.217" font-family="Helvetica">gates every session</text></g><!--link SENS to SVC--><g class="link" data-entity-1="ent0003" data-entity-2="ent0007" id="lnk15" data-source-line="23" data-link-type="dependency"><path d="M307,228.08 C307,243.72 307,259.95 307,275.65" style="stroke:#B23A34;stroke-width:1;" fill="none" id="SENS-to-SVC"/><polygon points="307,280.65,311,271.65,307,275.65,303,271.65,307,280.65" fill="#B23A34" style="stroke:#B23A34;stroke-width:1;stroke-linejoin:miter;stroke-miterlimit:10;"/><text x="308" y="260.47" fill="#6E6E73" font-size="11" textLength="66.645" font-family="Helvetica">live heart rate</text></g><!--link DAYLOG to SVC--><g class="link" data-entity-1="ent0005" data-entity-2="ent0007" id="lnk16" data-source-line="24" data-link-type="dependency"><path d="M441.33,234.48 C412.12,249.16 381.148,264.735 354.008,278.375" style="stroke:#1DA34A;stroke-width:1;" fill="none" id="DAYLOG-to-SVC"/><polygon points="349.54,280.62,359.378,280.153,354.008,278.375,355.785,273.004,349.54,280.62" fill="#1DA34A" style="stroke:#1DA34A;stroke-width:1;stroke-linejoin:miter;stroke-miterlimit:10;"/><text x="408.17" y="260.47" fill="#6E6E73" font-size="11" textLength="51.971" font-family="Helvetica">day record</text></g><!--link SLEEPLOG to SVC--><g class="link" data-entity-1="ent0006" data-entity-2="ent0007" id="lnk17" data-source-line="25" data-link-type="dependency"><path d="M151.36,228.44 C184.36,244.04 224.33,262.923 257.29,278.503" style="stroke:#BF5AF2;stroke-width:1;" fill="none" id="SLEEPLOG-to-SVC"/><polygon points="261.81,280.64,255.383,273.177,257.29,278.503,251.964,280.41,261.81,280.64" fill="#BF5AF2" style="stroke:#BF5AF2;stroke-width:1;stroke-linejoin:miter;stroke-miterlimit:10;"/><text x="225.5" y="260.47" fill="#6E6E73" font-size="11" textLength="58.706" font-family="Helvetica">closed night</text></g><!--link DAYLOG to WUI--><g class="link" data-entity-1="ent0005" data-entity-2="ent0011" id="lnk18" data-source-line="26" data-link-type="dependency"><path d="M496,234.48 C496,251.47 496,267.64 496,281.7" style="stroke:#8E8E93;stroke-width:1;" fill="none" id="DAYLOG-to-WUI"/><polygon points="496,286.7,500,277.7,496,281.7,492,277.7,496,286.7" fill="#8E8E93" style="stroke:#8E8E93;stroke-width:1;stroke-linejoin:miter;stroke-miterlimit:10;"/></g><!--link SVC to LINK--><g class="link" data-entity-1="ent0007" data-entity-2="ent0008" id="lnk19" data-source-line="27" data-link-type="dependency"><path d="M267.72,325.32 C241.94,339.31 212.744,355.144 186.924,369.164" style="stroke:#8E8E93;stroke-width:1;" fill="none" id="SVC-to-LINK"/><polygon points="182.53,371.55,192.348,370.771,186.924,369.164,188.531,363.74,182.53,371.55" fill="#8E8E93" style="stroke:#8E8E93;stroke-width:1;stroke-linejoin:miter;stroke-miterlimit:10;"/><text x="235.82" y="351.47" fill="#6E6E73" font-size="11" textLength="23.853" font-family="Helvetica">send</text></g><!--link SVC to ADV--><g class="link" data-entity-1="ent0007" data-entity-2="ent0009" id="lnk20" data-source-line="28" data-link-type="dependency"><path d="M307,325.09 C307,339.18 307,352.63 307,366.75" style="stroke:#8E8E93;stroke-width:1;" fill="none" id="SVC-to-ADV"/><polygon points="307,371.75,311,362.75,307,366.75,303,362.75,307,371.75" fill="#8E8E93" style="stroke:#8E8E93;stroke-width:1;stroke-linejoin:miter;stroke-miterlimit:10;"/><text x="308" y="351.47" fill="#6E6E73" font-size="11" textLength="96.604" font-family="Helvetica">off while subscribed</text></g><!--link SVC to TRAY--><!--link BC to MODEL--><g class="link" data-entity-1="ent0023" data-entity-2="ent0025" id="lnk29" data-source-line="42" data-link-type="dependency"><path d="M223.42,564.09 C224.37,578.18 225.284,591.641 226.234,605.761" style="stroke:#0A6ED1;stroke-width:1;" fill="none" id="BC-to-MODEL"/><polygon points="226.57,610.75,229.957,601.502,226.234,605.761,221.975,602.039,226.57,610.75" fill="#0A6ED1" style="stroke:#0A6ED1;stroke-width:1;stroke-linejoin:miter;stroke-miterlimit:10;"/><text x="226.36" y="590.47" fill="#6E6E73" font-size="11" textLength="72.15" font-family="Helvetica">hr · day · sleep</text></g><!--link MODEL to STORE--><g class="link" data-entity-1="ent0025" data-entity-2="ent0024" id="lnk30" data-source-line="43" data-link-type="dependency"><path d="M228,655.09 C228,669.18 228,682.63 228,696.75" style="stroke:#0A6ED1;stroke-width:1;" fill="none" id="MODEL-to-STORE"/><polygon points="228,701.75,232,692.75,228,696.75,224,692.75,228,701.75" fill="#0A6ED1" style="stroke:#0A6ED1;stroke-width:1;stroke-linejoin:miter;stroke-miterlimit:10;"/><text x="229" y="681.47" fill="#6E6E73" font-size="11" textLength="30.588" font-family="Helvetica">queue</text></g><!--link STORE to HK--><g class="link" data-entity-1="ent0024" data-entity-2="ent0027" id="lnk31" data-source-line="44" data-link-type="dependency"><path d="M228,746.33 C228,763.77 228,783.02 228,798.61" style="stroke:#0A6ED1;stroke-width:1;" fill="none" id="STORE-to-HK"/><polygon points="228,803.61,232,794.61,228,798.61,224,794.61,228,803.61" fill="#0A6ED1" style="stroke:#0A6ED1;stroke-width:1;stroke-linejoin:miter;stroke-miterlimit:10;"/><text x="229.306" y="772.47" fill="#6E6E73" font-size="11" textLength="92.324" font-family="Helvetica">read own samples,</text><text x="229" y="783.47" fill="#6E6E73" font-size="11" textLength="92.936" font-family="Helvetica">write the difference</text></g><!--link MODEL to UI--><g class="link" data-entity-1="ent0025" data-entity-2="ent0026" id="lnk32" data-source-line="45" data-link-type="dependency"><path d="M275.837,657.526 C304.287,671.516 332.383,685.323 360.883,699.343" style="stroke:#8E8E93;stroke-width:1;" fill="none" id="MODEL-UI"/><polygon points="271.35,655.32,277.661,662.881,275.837,657.526,281.191,655.702,271.35,655.32" fill="#8E8E93" style="stroke:#8E8E93;stroke-width:1;stroke-linejoin:miter;stroke-miterlimit:10;"/><polygon points="365.37,701.55,359.06,693.988,360.883,699.343,355.529,701.167,365.37,701.55" fill="#8E8E93" style="stroke:#8E8E93;stroke-width:1;stroke-linejoin:miter;stroke-miterlimit:10;"/><text x="330.34" y="681.47" fill="#6E6E73" font-size="11" textLength="77.043" font-family="Helvetica">facts / step goal</text></g><!--link LINK to BC--><g class="link" data-entity-1="ent0008" data-entity-2="ent0023" id="lnk33" data-source-line="48" data-link-type="dependency"><path d="M156.87,420.627 C171.85,448.307 193.13,487.653 208.12,515.343" style="stroke:#0A6ED1;stroke-width:3;" fill="none" id="LINK-BC"/><polygon points="154.49,416.23,155.256,426.049,156.87,420.627,162.291,422.241,154.49,416.23" fill="#0A6ED1" style="stroke:#0A6ED1;stroke-width:3;stroke-linejoin:miter;stroke-miterlimit:10;"/><polygon points="210.5,519.74,209.733,509.921,208.12,515.343,202.698,513.73,210.5,519.74" fill="#0A6ED1" style="stroke:#0A6ED1;stroke-width:3;stroke-linejoin:miter;stroke-miterlimit:10;"/><text x="203.083" y="457.47" fill="#6E6E73" font-size="11" textLength="85.567" font-weight="700" font-family="Helvetica">encrypted GATT</text><text x="183.5" y="468.47" fill="#6E6E73" font-size="11" textLength="124.733" font-family="Helvetica">hr, day, sleep / sync, goal</text></g><!--link IOSANCS to TRAY--><g class="link" data-entity-1="ent0028" data-entity-2="ent0010" id="lnk34" data-source-line="49" data-link-type="dependency"><path d="M446.54,525.56 C450.85,499.32 458.809,450.904 463.699,421.164" style="stroke:#8E8E93;stroke-width:1;stroke-dasharray:7,7;" fill="none" id="IOSANCS-to-TRAY"/><polygon points="464.51,416.23,459.103,424.462,463.699,421.164,466.997,425.76,464.51,416.23" fill="#8E8E93" style="stroke:#8E8E93;stroke-width:1;stroke-linejoin:miter;stroke-miterlimit:10;"/><text x="459.86" y="462.97" fill="#6E6E73" font-size="11" textLength="30.562" font-family="Helvetica">ANCS</text></g><?plantuml-src XLLTJsCt47tFhvZIXqeqR7S9MsqZYfIGy242GOI2KDC7vzv9hfKR-wxj4AAgKdz4_qlV-rFwIth69fIWPFVjsdVcU3nppl4tscJbF6VoOLdokse-Ask5ZcjsRCEoubhGeMJgE5OpEj61_ltpBxhMJrpIlGfPGGSKBEdhmXgkrVnKcqevX1gRi-UAzlTVRJfbfhBPEAZLAfLDrOHfPntidx_fdfMZ_c27bATx-hr6bDbP1NmJQEUCLHaA6h1xr1bxYQ-Kz_gHXmPLLt4drpueax5yZqjhdH-Q0gW15OIugxAW7tLOugROYKUT3UZma9_2qT5NJxnavUUEZqkDYA4fSJhzZr-dHQ7HiuLSYVC8FkXURO6tu_7UoEQeX8stRcWMrXco3XqCCRL_SjBkTnusPtVKicSdNxcwOn-qcT3PZUpo4xjC-tJfJkkXrpy5TYpsBVgWPAuYVYYOZ9uKeKuJN34dQqZs5WxdfHlskjthBs2rdSud_Dn5wTcOisLMnaAjGwDyGFEqDGdjxdWRqAaAeQVDT6XEMxUtQ9jxPFTytGK2JN2sZ22zywkBRIYj75a1RK376-yzZUREut8VPzgGz2i2j3ftM_DDvjFywNkwTMevD1YO7kiiNYBE8bDb6Pc6TSIxlMazR0EC2eF01fbZJasu_-NyLJJ2GT6zNx_zq6ar3bg_xHsjfjSaDVAsd8FQmGPL-ZgfsIZMLhWDQI-ZGgAN4TCFf1PgoeXTiGq9xPEFhPFzDmaoVK-CvWbZ8Jnha1NfBIdx3HmIKp309hrH1YAVIrwl9yRcQedEPzRb0hWwSRsE69YLreE1aOvhY9-wdxe_DIGGdHCGXAzjHq8qHMdvfjyoxYP1aCy2zlEHpvmUiKH_5wTC1UPYO7XcPESc9mQdaK4wUB8BKoTlQQ53OUS1-j2USXkIxI64b6no10ksaZpH42nO_9OKy6JTkZeUa79EsEoiHvUJr0gBcdAj9h3ITo_rmwzpDbA-iAlsnojdJQuiJDJFTdhzrawJAe_nxLGvDAAhQroHao_IJ6M5DiagsgB8IX0tE-IbHiaEQaZB2r0vgZJNQ2Xg-3pdUIp6SN3BfFBR_attowY3O1tiefgFIktXfZI6e9AQBlkTRczRzZ5y01ztcXSmG74_4MGXJCH7OZq-0kQSqABMDaArgWgDJ-Mab-9YincZot5uCUYyFuY3N4KYj1tvzhxrOxVpGGQMBj24IADpWrshqX2SVgx5ftOrKoU5076z5d8c_8QJvC96ycg6qdqTZuhJuWw546WynkEE9-BbaCCr5Q0HpTHbs8AyApIngXHY9JzzEQyEWcTJ0nFuEIQsHPoxku1soqhU2F7dtLqylQukjwlJocpyqcJr1Bjgqqi9zLp9d5U41gJy_my0?></g></svg>