<svg xmlns="http://www.w3.org/2000/svg" xmlns:xlink="http://www.w3.org/1999/xlink" contentStyleType="text/css" height="1349px" preserveAspectRatio="none" style="width:984px;height:1349px;background:#FFFFFF;" version="1.1" viewBox="0 0 984 1349" width="984px" zoomAndPan="magnify"><title>A day's steps, from the watch's sensors to Apple Health</title><defs/><g><text fill="#1C1C1E" font-family="Helvetica" font-size="16" font-weight="bold" lengthAdjust="spacing" textLength="425.4922" x="275.312" y="27.3203">A day's steps, from the watch's sensors to Apple Health</text><rect fill="#F6FDF8" height="1300" rx="5" ry="5" style="stroke:#C7C7CC;stroke-width:0.5;" width="386.3354" x="1" y="43"/><text fill="#6E6E73" font-family="Helvetica" font-size="13" font-weight="bold" lengthAdjust="spacing" textLength="83.8081" x="152.2637" y="53.0103">Pixel Watch 4</text><rect fill="#F6FAFF" height="1300" rx="5" ry="5" style="stroke:#C7C7CC;stroke-width:0.5;" width="545.0645" x="406.0518" y="43"/><text fill="#6E6E73" font-family="Helvetica" font-size="13" font-weight="bold" lengthAdjust="spacing" textLength="43.3354" x="656.9163" y="53.0103">iPhone</text><rect fill="#FFFFFF" height="386" rx="5" ry="5" style="stroke:#C7C7CC;stroke-width:1.5;" width="443.6934" x="523.4229" y="678"/><rect fill="#FFFFFF" height="128" rx="5" ry="5" style="stroke:#C7C7CC;stroke-width:1.5;" width="423.6934" x="533.4229" y="800"/><path d="M533.4229,865 L957.1162,865 L957.1162,923 A5,5 0 0 1 952.1162,928 L538.4229,928 A5,5 0 0 1 533.4229,923 L533.4229,865 " fill="#FFFFFF" style="stroke:none;stroke-width:1.0;"/><path d="M523.4229,935 L967.1162,935 L967.1162,1059 A5,5 0 0 1 962.1162,1064 L528.4229,1064 A5,5 0 0 1 523.4229,1059 L523.4229,935 " fill="#FFFFFF" style="stroke:none;stroke-width:1.0;"/><line style="stroke:#C7C7CC;stroke-width:0.5;stroke-dasharray:5.0,5.0;" x1="53" x2="53" y1="99" y2="1301"/><line style="stroke:#C7C7CC;stroke-width:0.5;stroke-dasharray:5.0,5.0;" x1="202.2729" x2="202.2729" y1="99" y2="1301"/><line style="stroke:#C7C7CC;stroke-width:0.5;stroke-dasharray:5.0,5.0;" x1="320.6343" x2="320.6343" y1="99" y2="1301"/><line style="stroke:#C7C7CC;stroke-width:0.5;stroke-dasharray:5.0,5.0;" x1="471.0518" x2="471.0518" y1="99" y2="1301"/><line style="stroke:#C7C7CC;stroke-width:0.5;stroke-dasharray:5.0,5.0;" x1="599.4229" x2="599.4229" y1="99" y2="1301"/><line style="stroke:#C7C7CC;stroke-width:0.5;stroke-dasharray:5.0,5.0;" x1="757.3682" x2="757.3682" y1="99" y2="1301"/><line style="stroke:#C7C7CC;stroke-width:0.5;stroke-dasharray:5.0,5.0;" x1="887.4033" x2="887.4033" y1="99" y2="1301"/><rect fill="#F2F2F7" height="38" rx="5" ry="5" style="stroke:#181818;stroke-width:1.0;" width="60.0137" x="23" y="60"/><text fill="#1C1C1E" font-family="Helvetica" font-size="12" lengthAdjust="spacing" textLength="34.6875" x="35.6631" y="76.2402">Health</text><text fill="#1C1C1E" font-family="Helvetica" font-size="12" lengthAdjust="spacing" textLength="46.0137" x="30" y="88.2402">Services</text><rect fill="#F2F2F7" height="38" rx="5" ry="5" style="stroke:#181818;stroke-width:1.0;" width="60.0137" x="23" y="1300"/><text fill="#1C1C1E" font-family="Helvetica" font-size="12" lengthAdjust="spacing" textLength="34.6875" x="35.6631" y="1316.2402">Health</text><text fill="#1C1C1E" font-family="Helvetica" font-size="12" lengthAdjust="spacing" textLength="46.0137" x="30" y="1328.2402">Services</text><rect fill="#EAF8EF" height="26" rx="5" ry="5" style="stroke:#181818;stroke-width:1.0;" width="55.3613" x="175.2729" y="72"/><text fill="#1C1C1E" font-family="Helvetica" font-size="12" lengthAdjust="spacing" textLength="41.3613" x="182.2729" y="88.2402">DayLog</text><rect fill="#EAF8EF" height="26" rx="5" ry="5" style="stroke:#181818;stroke-width:1.0;" width="55.3613" x="175.2729" y="1300"/><text fill="#1C1C1E" font-family="Helvetica" font-size="12" lengthAdjust="spacing" textLength="41.3613" x="182.2729" y="1316.2402">DayLog</text><rect fill="#EAF8EF" height="26" rx="5" ry="5" style="stroke:#181818;stroke-width:1.0;" width="88.7012" x="276.6343" y="72"/><text fill="#1C1C1E" font-family="Helvetica" font-size="12" lengthAdjust="spacing" textLength="74.7012" x="283.6343" y="88.2402">BridgeService</text><rect fill="#EAF8EF" height="26" rx="5" ry="5" style="stroke:#181818;stroke-width:1.0;" width="88.7012" x="276.6343" y="1300"/><text fill="#1C1C1E" font-family="Helvetica" font-size="12" lengthAdjust="spacing" textLength="74.7012" x="283.6343" y="1316.2402">BridgeService</text><rect fill="#EAF2FC" height="26" rx="5" ry="5" style="stroke:#181818;stroke-width:1.0;" width="87.3711" x="428.0518" y="72"/><text fill="#1C1C1E" font-family="Helvetica" font-size="12" lengthAdjust="spacing" textLength="73.3711" x="435.0518" y="88.2402">BridgeCentral</text><rect fill="#EAF2FC" height="26" rx="5" ry="5" style="stroke:#181818;stroke-width:1.0;" width="87.3711" x="428.0518" y="1300"/><text fill="#1C1C1E" font-family="Helvetica" font-size="12" lengthAdjust="spacing" textLength="73.3711" x="435.0518" y="1316.2402">BridgeCentral</text><rect fill="#EAF2FC" height="26" rx="5" ry="5" style="stroke:#181818;stroke-width:1.0;" width="77.3691" x="561.4229" y="72"/><text fill="#1C1C1E" font-family="Helvetica" font-size="12" lengthAdjust="spacing" textLength="63.3691" x="568.4229" y="88.2402">HealthStore</text><rect fill="#EAF2FC" height="26" rx="5" ry="5" style="stroke:#181818;stroke-width:1.0;" width="77.3691" x="561.4229" y="1300"/><text fill="#1C1C1E" font-family="Helvetica" font-size="12" lengthAdjust="spacing" textLength="63.3691" x="568.4229" y="1316.2402">HealthStore</text><rect fill="#EAF2FC" height="26" rx="5" ry="5" style="stroke:#181818;stroke-width:1.0;" width="86.0352" x="714.3682" y="72"/><text fill="#1C1C1E" font-family="Helvetica" font-size="12" lengthAdjust="spacing" textLength="72.0352" x="721.3682" y="88.2402">HealthKitSink</text><rect fill="#EAF2FC" height="26" rx="5" ry="5" style="stroke:#181818;stroke-width:1.0;" width="86.0352" x="714.3682" y="1300"/><text fill="#1C1C1E" font-family="Helvetica" font-size="12" lengthAdjust="spacing" textLength="72.0352" x="721.3682" y="1316.2402">HealthKitSink</text><rect fill="#F2F2F7" height="26" rx="5" ry="5" style="stroke:#181818;stroke-width:1.0;" width="82.7129" x="846.4033" y="72"/><text fill="#1C1C1E" font-family="Helvetica" font-size="12" lengthAdjust="spacing" textLength="68.7129" x="853.4033" y="88.2402">Apple Health</text><rect fill="#F2F2F7" height="26" rx="5" ry="5" style="stroke:#181818;stroke-width:1.0;" width="82.7129" x="846.4033" y="1300"/><text fill="#1C1C1E" font-family="Helvetica" font-size="12" lengthAdjust="spacing" textLength="68.7129" x="853.4033" y="1316.2402">Apple Health</text><rect fill="#F2F2F7" height="3" rx="5" ry="5" style="stroke:#F2F2F7;stroke-width:1.0;" width="977.1162" x="0" y="128.5"/><line style="stroke:#C7C7CC;stroke-width:1.0;" x1="0" x2="977.1162" y1="128.5" y2="128.5"/><line style="stroke:#C7C7CC;stroke-width:1.0;" x1="0" x2="977.1162" y1="131.5" y2="131.5"/><rect fill="#F2F2F7" height="21" rx="5" ry="5" style="stroke:#C7C7CC;stroke-width:2.0;" width="44.3354" x="466.3904" y="119"/><text fill="#1C1C1E" font-family="Helvetica" font-size="13" font-weight="bold" lengthAdjust="spacing" textLength="26.7236" x="472.3904" y="133.0103">Link</text><line style="stroke:#6E6E73;stroke-width:1.0;" x1="320.9849" x2="362.9849" y1="178" y2="178"/><line style="stroke:#6E6E73;stroke-width:1.0;" x1="362.9849" x2="362.9849" y1="178" y2="191"/><line style="stroke:#6E6E73;stroke-width:1.0;" x1="321.9849" x2="362.9849" y1="191" y2="191"/><polygon fill="#6E6E73" points="331.9849,187,321.9849,191,331.9849,195,327.9849,191" style="stroke:#6E6E73;stroke-width:1.0;"/><text fill="#6E6E73" font-family="Helvetica" font-size="11" lengthAdjust="spacing" textLength="44.6338" x="327.9849" y="162.4702">advertise</text><text fill="#6E6E73" font-family="Helvetica" font-size="11" lengthAdjust="spacing" textLength="99.6499" x="327.9849" y="173.4702">30s burst / 5min rest</text><polygon fill="#0A6ED1" points="331.9849,212,321.9849,216,331.9849,220,327.9849,216" style="stroke:#0A6ED1;stroke-width:1.0;"/><line style="stroke:#0A6ED1;stroke-width:1.0;" x1="325.9849" x2="470.7373" y1="216" y2="216"/><text fill="#6E6E73" font-family="Helvetica" font-size="11" lengthAdjust="spacing" textLength="99.0537" x="337.9849" y="211.4702">connect (bond keys)</text><path d="M476,234 L476,256 A5,5 0 0 0 481,261 L647,261 A5,5 0 0 0 652,256 L652,239 L642,229 L481,229 A5,5 0 0 0 476,234 " fill="#FFF6E5" style="stroke:#B26A00;stroke-width:0.5;"/><path d="M642,229 L642,236.5 A2.5,2.5 0 0 0 644.5,239 L652,239 L642,229 " fill="#FFF6E5" style="stroke:#B26A00;stroke-width:0.5;"/><text fill="#1C1C1E" font-family="Helvetica" font-size="11" lengthAdjust="spacing" textLength="142.7476" x="482" y="242.4702">Encrypted + MITM-protected,</text><text fill="#1C1C1E" font-family="Helvetica" font-size="11" lengthAdjust="spacing" textLength="155.9121" x="482" y="253.4702">or the watch refuses everything.</text><polygon fill="#6E6E73" points="331.9849,279,321.9849,283,331.9849,287,327.9849,283" style="stroke:#6E6E73;stroke-width:1.0;"/><line style="stroke:#6E6E73;stroke-width:1.0;" x1="325.9849" x2="470.7373" y1="283" y2="283"/><text fill="#6E6E73" font-family="Helvetica" font-size="11" lengthAdjust="spacing" textLength="84.3584" x="337.9849" y="278.4702">discover services</text><polygon fill="#6E6E73" points="331.9849,304,321.9849,308,331.9849,312,327.9849,308" style="stroke:#6E6E73;stroke-width:1.0;"/><line style="stroke:#6E6E73;stroke-width:1.0;" x1="325.9849" x2="470.7373" y1="308" y2="308"/><text fill="#6E6E73" font-family="Helvetica" font-size="11" lengthAdjust="spacing" textLength="115.5161" x="337.9849" y="303.4702">subscribe (CCCD write)</text><line style="stroke:#6E6E73;stroke-width:1.0;" x1="320.9849" x2="362.9849" y1="333" y2="333"/><line style="stroke:#6E6E73;stroke-width:1.0;" x1="362.9849" x2="362.9849" y1="333" y2="346"/><line style="stroke:#6E6E73;stroke-width:1.0;" x1="321.9849" x2="362.9849" y1="346" y2="346"/><polygon fill="#6E6E73" points="331.9849,342,321.9849,346,331.9849,350,327.9849,346" style="stroke:#6E6E73;stroke-width:1.0;"/><text fill="#6E6E73" font-family="Helvetica" font-size="11" lengthAdjust="spacing" textLength="68.4814" x="327.9849" y="328.4702">advertising off</text><polygon fill="#6E6E73" points="331.9849,367,321.9849,371,331.9849,375,327.9849,371" style="stroke:#6E6E73;stroke-width:1.0;"/><line style="stroke:#6E6E73;stroke-width:1.0;" x1="325.9849" x2="470.7373" y1="371" y2="371"/><text fill="#6E6E73" font-family="Helvetica" font-size="11" lengthAdjust="spacing" textLength="51.6968" x="337.9849" y="366.4702">{"t":"sync"}</text><polygon fill="#6E6E73" points="331.9849,392,321.9849,396,331.9849,400,327.9849,396" style="stroke:#6E6E73;stroke-width:1.0;"/><line style="stroke:#6E6E73;stroke-width:1.0;" x1="325.9849" x2="470.7373" y1="396" y2="396"/><text fill="#6E6E73" font-family="Helvetica" font-size="11" lengthAdjust="spacing" textLength="98.0332" x="337.9849" y="391.4702">{"t":"goal","steps":N}</text><rect fill="#F2F2F7" height="3" rx="5" ry="5" style="stroke:#F2F2F7;stroke-width:1.0;" width="977.1162" x="0" y="423.5"/><line style="stroke:#C7C7CC;stroke-width:1.0;" x1="0" x2="977.1162" y1="423.5" y2="423.5"/><line style="stroke:#C7C7CC;stroke-width:1.0;" x1="0" x2="977.1162" y1="426.5" y2="426.5"/><rect fill="#F2F2F7" height="21" rx="5" ry="5" style="stroke:#C7C7CC;stroke-width:2.0;" width="94.2026" x="441.4568" y="414"/><text fill="#1C1C1E" font-family="Helvetica" font-size="13" font-weight="bold" lengthAdjust="spacing" textLength="76.5908" x="447.4568" y="428.0103">Steady state</text><polygon fill="#6E6E73" points="190.9536,458,200.9536,462,190.9536,466,194.9536,462" style="stroke:#6E6E73;stroke-width:1.0;"/><line style="stroke:#6E6E73;stroke-width:1.0;" x1="53.0068" x2="196.9536" y1="462" y2="462"/><text fill="#6E6E73" font-family="Helvetica" font-size="11" lengthAdjust="spacing" textLength="125.9468" x="60.0068" y="457.4702">STEPS_DAILY (absolute)</text><line style="stroke:#6E6E73;stroke-width:1.0;" x1="202.9536" x2="244.9536" y1="498" y2="498"/><line style="stroke:#6E6E73;stroke-width:1.0;" x1="244.9536" x2="244.9536" y1="498" y2="511"/><line style="stroke:#6E6E73;stroke-width:1.0;" x1="203.9536" x2="244.9536" y1="511" y2="511"/><polygon fill="#6E6E73" points="213.9536,507,203.9536,511,213.9536,515,209.9536,511" style="stroke:#6E6E73;stroke-width:1.0;"/><text fill="#6E6E73" font-family="Helvetica" font-size="11" lengthAdjust="spacing" textLength="100.2676" x="209.9536" y="482.4702">raise only; re-anchor</text><text fill="#6E6E73" font-family="Helvetica" font-size="11" lengthAdjust="spacing" textLength="85.6045" x="209.9536" y="493.4702">hardware counter</text><polygon fill="#1DA34A" points="459.7373,532,469.7373,536,459.7373,540,463.7373,536" style="stroke:#1DA34A;stroke-width:1.0;"/><line style="stroke:#1DA34A;stroke-width:1.0;" x1="320.9849" x2="465.7373" y1="536" y2="536"/><text fill="#6E6E73" font-family="Helvetica" font-size="11" lengthAdjust="spacing" textLength="107.1963" x="327.9849" y="531.4702">{"t":"day","steps":N,...}</text><polygon fill="#B23A34" points="459.7373,557,469.7373,561,459.7373,565,463.7373,561" style="stroke:#B23A34;stroke-width:1.0;"/><line style="stroke:#B23A34;stroke-width:1.0;" x1="320.9849" x2="465.7373" y1="561" y2="561"/><text fill="#6E6E73" font-family="Helvetica" font-size="11" lengthAdjust="spacing" textLength="126.7524" x="327.9849" y="556.4702">{"t":"hr","bpm":N} every 5s</text><rect fill="#F2F2F7" height="3" rx="5" ry="5" style="stroke:#F2F2F7;stroke-width:1.0;" width="977.1162" x="0" y="588.5"/><line style="stroke:#C7C7CC;stroke-width:1.0;" x1="0" x2="977.1162" y1="588.5" y2="588.5"/><line style="stroke:#C7C7CC;stroke-width:1.0;" x1="0" x2="977.1162" y1="591.5" y2="591.5"/><rect fill="#F2F2F7" height="21" rx="5" ry="5" style="stroke:#C7C7CC;stroke-width:2.0;" width="55.1709" x="460.9727" y="579"/><text fill="#1C1C1E" font-family="Helvetica" font-size="13" font-weight="bold" lengthAdjust="spacing" textLength="37.5591" x="466.9727" y="593.0103">Mirror</text><polygon fill="#6E6E73" points="588.1074,623,598.1074,627,588.1074,631,592.1074,627" style="stroke:#6E6E73;stroke-width:1.0;"/><line style="stroke:#6E6E73;stroke-width:1.0;" x1="471.7373" x2="594.1074" y1="627" y2="627"/><text fill="#6E6E73" font-family="Helvetica" font-size="11" lengthAdjust="spacing" textLength="51.9707" x="478.7373" y="622.4702">day record</text><polygon fill="#6E6E73" points="745.3857,659,755.3857,663,745.3857,667,749.3857,663" style="stroke:#6E6E73;stroke-width:1.0;"/><line style="stroke:#6E6E73;stroke-width:1.0;" x1="600.1074" x2="751.3857" y1="663" y2="663"/><text fill="#6E6E73" font-family="Helvetica" font-size="11" lengthAdjust="spacing" textLength="106.9868" x="607.1074" y="647.4702">sum our own samples</text><text fill="#6E6E73" font-family="Helvetica" font-size="11" lengthAdjust="spacing" textLength="95.0415" x="607.1074" y="658.4702">for the watch's date</text><path d="M528.4229,678 L583.5938,678 L583.5938,683 L573.5938,693 L523.4229,693 L523.4229,683 A5,5 0 0 1 528.4229,678 " fill="#FFFFFF" style="stroke:#C7C7CC;stroke-width:1.5;"/><rect fill="none" height="386" rx="5" ry="5" style="stroke:#C7C7CC;stroke-width:1.5;" width="443.6934" x="523.4229" y="678"/><text fill="#6E6E73" font-family="Helvetica" font-size="13" font-weight="bold" lengthAdjust="spacing" textLength="15.1709" x="538.4229" y="689.0103">alt</text><text fill="#1C1C1E" font-family="Helvetica" font-size="11" font-weight="bold" lengthAdjust="spacing" textLength="82.5269" x="598.5938" y="688.4702">[store readable]</text><polygon fill="#6E6E73" points="611.1074,706,601.1074,710,611.1074,714,607.1074,710" style="stroke:#6E6E73;stroke-width:1.0;"/><line style="stroke:#6E6E73;stroke-width:1.0;stroke-dasharray:2.0,2.0;" x1="605.1074" x2="756.3857" y1="710" y2="710"/><text fill="#6E6E73" font-family="Helvetica" font-size="11" lengthAdjust="spacing" textLength="45.5522" x="617.1074" y="705.4702">have = M</text><path d="M762,728 L762,783 A5,5 0 0 0 767,788 L919,788 A5,5 0 0 0 924,783 L924,733 L914,723 L767,723 A5,5 0 0 0 762,728 " fill="#FFF6E5" style="stroke:#B26A00;stroke-width:0.5;"/><path d="M914,723 L914,730.5 A2.5,2.5 0 0 0 916.5,733 L924,733 L914,723 " fill="#FFF6E5" style="stroke:#B26A00;stroke-width:0.5;"/><text fill="#1C1C1E" font-family="Helvetica" font-size="11" lengthAdjust="spacing" textLength="136.9575" x="768" y="736.4702">An empty day is reported as</text><text fill="#1C1C1E" font-family="Helvetica" font-size="11" lengthAdjust="spacing" textLength="127.1553" x="768" y="747.4702">errorNoData. That is zero,</text><text fill="#1C1C1E" font-family="Helvetica" font-size="11" lengthAdjust="spacing" textLength="134.5137" x="768" y="758.4702">not a failure &#8212; treating it as</text><text fill="#1C1C1E" font-family="Helvetica" font-size="11" lengthAdjust="spacing" textLength="141.8506" x="768" y="769.4702">one meant the first sample of</text><text fill="#1C1C1E" font-family="Helvetica" font-size="11" lengthAdjust="spacing" textLength="141.8452" x="768" y="780.4702">a new day was never written.</text><path d="M538.4229,800 L593.5938,800 L593.5938,805 L583.5938,815 L533.4229,815 L533.4229,805 A5,5 0 0 1 538.4229,800 " fill="#FFFFFF" style="stroke:#C7C7CC;stroke-width:1.5;"/><rect fill="none" height="128" rx="5" ry="5" style="stroke:#C7C7CC;stroke-width:1.5;" width="423.6934" x="533.4229" y="800"/><text fill="#6E6E73" font-family="Helvetica" font-size="13" font-weight="bold" lengthAdjust="spacing" textLength="15.1709" x="548.4229" y="811.0103">alt</text><text fill="#1C1C1E" font-family="Helvetica" font-size="11" font-weight="bold" lengthAdjust="spacing" textLength="36.9692" x="608.5938" y="810.4702">[N &gt; M]</text><polygon fill="#6E6E73" points="745.3857,828,755.3857,832,745.3857,836,749.3857,832" style="stroke:#6E6E73;stroke-width:1.0;"/><line style="stroke:#6E6E73;stroke-width:1.0;" x1="600.1074" x2="751.3857" y1="832" y2="832"/><text fill="#6E6E73" font-family="Helvetica" font-size="11" lengthAdjust="spacing" textLength="55.9238" x="607.1074" y="827.4702">write N &#8722; M</text><polygon fill="#1DA34A" points="875.7598,853,885.7598,857,875.7598,861,879.7598,857" style="stroke:#1DA34A;stroke-width:1.0;"/><line style="stroke:#1DA34A;stroke-width:1.0;" x1="757.3857" x2="881.7598" y1="857" y2="857"/><text fill="#6E6E73" font-family="Helvetica" font-size="11" lengthAdjust="spacing" textLength="59.3076" x="764.3857" y="852.4702">step sample</text><line style="stroke:#C7C7CC;stroke-width:1.0;stroke-dasharray:2.0,2.0;" x1="533.4229" x2="957.1162" y1="866" y2="866"/><text fill="#1C1C1E" font-family="Helvetica" font-size="11" font-weight="bold" lengthAdjust="spacing" textLength="36.9692" x="538.4229" y="874.4702">[N &lt; M]</text><polygon fill="#6E6E73" points="745.3857,891,755.3857,895,745.3857,899,749.3857,895" style="stroke:#6E6E73;stroke-width:1.0;"/><line style="stroke:#6E6E73;stroke-width:1.0;" x1="600.1074" x2="751.3857" y1="895" y2="895"/><text fill="#6E6E73" font-family="Helvetica" font-size="11" lengthAdjust="spacing" textLength="133.2783" x="607.1074" y="890.4702">delete our samples, write N</text><polygon fill="#1DA34A" points="875.7598,916,885.7598,920,875.7598,924,879.7598,920" style="stroke:#1DA34A;stroke-width:1.0;"/><line style="stroke:#1DA34A;stroke-width:1.0;" x1="757.3857" x2="881.7598" y1="920" y2="920"/><text fill="#6E6E73" font-family="Helvetica" font-size="11" lengthAdjust="spacing" textLength="62.9868" x="764.3857" y="915.4702">day replaced</text><line style="stroke:#C7C7CC;stroke-width:1.0;stroke-dasharray:2.0,2.0;" x1="523.4229" x2="967.1162" y1="936" y2="936"/><text fill="#1C1C1E" font-family="Helvetica" font-size="11" font-weight="bold" lengthAdjust="spacing" textLength="163.7808" x="528.4229" y="944.4702">[phone locked / not authorised]</text><polygon fill="#6E6E73" points="611.1074,961,601.1074,965,611.1074,969,607.1074,965" style="stroke:#6E6E73;stroke-width:1.0;"/><line style="stroke:#6E6E73;stroke-width:1.0;stroke-dasharray:2.0,2.0;" x1="605.1074" x2="756.3857" y1="965" y2="965"/><text fill="#6E6E73" font-family="Helvetica" font-size="11" lengthAdjust="spacing" textLength="130.8452" x="617.1074" y="960.4702">errorDatabaseInaccessible</text><line style="stroke:#6E6E73;stroke-width:1.0;" x1="600.1074" x2="642.1074" y1="990" y2="990"/><line style="stroke:#6E6E73;stroke-width:1.0;" x1="642.1074" x2="642.1074" y1="990" y2="1003"/><line style="stroke:#6E6E73;stroke-width:1.0;" x1="601.1074" x2="642.1074" y1="1003" y2="1003"/><polygon fill="#6E6E73" points="611.1074,999,601.1074,1003,611.1074,1007,607.1074,1003" style="stroke:#6E6E73;stroke-width:1.0;"/><text fill="#6E6E73" font-family="Helvetica" font-size="11" lengthAdjust="spacing" textLength="102.7544" x="607.1074" y="985.4702">keep the day queued</text><path d="M605,1021 L605,1054 A5,5 0 0 0 610,1059 L797,1059 A5,5 0 0 0 802,1054 L802,1026 L792,1016 L610,1016 A5,5 0 0 0 605,1021 " fill="#FFF6E5" style="stroke:#B26A00;stroke-width:0.5;"/><path d="M792,1016 L792,1023.5 A2.5,2.5 0 0 0 794.5,1026 L802,1026 L792,1016 " fill="#FFF6E5" style="stroke:#B26A00;stroke-width:0.5;"/><text fill="#1C1C1E" font-family="Helvetica" font-size="11" lengthAdjust="spacing" textLength="171.8267" x="611" y="1029.4702">Never dropped. Retried on the next</text><text fill="#1C1C1E" font-family="Helvetica" font-size="11" lengthAdjust="spacing" textLength="176.7358" x="611" y="1040.4702">push, on unlock, on an authorisation</text><text fill="#1C1C1E" font-family="Helvetica" font-size="11" lengthAdjust="spacing" textLength="135.1636" x="611" y="1051.4702">change, and on foreground.</text><rect fill="#F2F2F7" height="3" rx="5" ry="5" style="stroke:#F2F2F7;stroke-width:1.0;" width="977.1162" x="0" y="1090.5"/><line style="stroke:#C7C7CC;stroke-width:1.0;" x1="0" x2="977.1162" y1="1090.5" y2="1090.5"/><line style="stroke:#C7C7CC;stroke-width:1.0;" x1="0" x2="977.1162" y1="1093.5" y2="1093.5"/><rect fill="#F2F2F7" height="21" rx="5" ry="5" style="stroke:#C7C7CC;stroke-width:2.0;" width="133.1646" x="421.9758" y="1081"/><text fill="#1C1C1E" font-family="Helvetica" font-size="13" font-weight="bold" lengthAdjust="spacing" textLength="115.5527" x="427.9758" y="1095.0103">When it goes quiet</text><line style="stroke:#6E6E73;stroke-width:1.0;" x1="471.7373" x2="513.7373" y1="1129" y2="1129"/><line style="stroke:#6E6E73;stroke-width:1.0;" x1="513.7373" x2="513.7373" y1="1129" y2="1142"/><line style="stroke:#6E6E73;stroke-width:1.0;" x1="472.7373" x2="513.7373" y1="1142" y2="1142"/><polygon fill="#6E6E73" points="482.7373,1138,472.7373,1142,482.7373,1146,478.7373,1142" style="stroke:#6E6E73;stroke-width:1.0;"/><text fill="#6E6E73" font-family="Helvetica" font-size="11" lengthAdjust="spacing" textLength="92.3184" x="478.7373" y="1124.4702">no `day` for 20 min</text><polygon fill="#6E6E73" points="331.9849,1163,321.9849,1167,331.9849,1171,327.9849,1167" style="stroke:#6E6E73;stroke-width:1.0;"/><line style="stroke:#6E6E73;stroke-width:1.0;" x1="325.9849" x2="470.7373" y1="1167" y2="1167"/><text fill="#6E6E73" font-family="Helvetica" font-size="11" lengthAdjust="spacing" textLength="90.2129" x="337.9849" y="1162.4702">{"t":"sync"} (probe)</text><line style="stroke:#6E6E73;stroke-width:1.0;" x1="471.7373" x2="513.7373" y1="1192" y2="1192"/><line style="stroke:#6E6E73;stroke-width:1.0;" x1="513.7373" x2="513.7373" y1="1192" y2="1205"/><line style="stroke:#6E6E73;stroke-width:1.0;" x1="472.7373" x2="513.7373" y1="1205" y2="1205"/><polygon fill="#6E6E73" points="482.7373,1201,472.7373,1205,482.7373,1209,478.7373,1205" style="stroke:#6E6E73;stroke-width:1.0;"/><text fill="#6E6E73" font-family="Helvetica" font-size="11" lengthAdjust="spacing" textLength="103.3345" x="478.7373" y="1187.4702">still nothing at 25 min</text><polygon fill="#6E6E73" points="331.9849,1226,321.9849,1230,331.9849,1234,327.9849,1230" style="stroke:#6E6E73;stroke-width:1.0;"/><line style="stroke:#6E6E73;stroke-width:1.0;" x1="325.9849" x2="470.7373" y1="1230" y2="1230"/><text fill="#6E6E73" font-family="Helvetica" font-size="11" lengthAdjust="spacing" textLength="78.2783" x="337.9849" y="1225.4702">drop connection</text><path d="M476,1248 L476,1281 A5,5 0 0 0 481,1286 L678,1286 A5,5 0 0 0 683,1281 L683,1253 L673,1243 L481,1243 A5,5 0 0 0 476,1248 " fill="#FFF6E5" style="stroke:#B26A00;stroke-width:0.5;"/><path d="M673,1243 L673,1250.5 A2.5,2.5 0 0 0 675.5,1253 L683,1253 L673,1243 " fill="#FFF6E5" style="stroke:#B26A00;stroke-width:0.5;"/><text fill="#1C1C1E" font-family="Helvetica" font-size="11" lengthAdjust="spacing" textLength="186.479" x="482" y="1256.4702">Reconnecting forces a fresh discovery</text><text fill="#1C1C1E" font-family="Helvetica" font-size="11" lengthAdjust="spacing" textLength="184.019" x="482" y="1267.4702">and CCCD write &#8212; the part the watch</text><text fill="#1C1C1E" font-family="Helvetica" font-size="11" lengthAdjust="spacing" textLength="64.1899" x="482" y="1278.4702">is waiting for.</text><!--SRC=[VLLTRnit47o_Nx6L7-gWifB8SHguTG1Pic337p0Yeq4G5mrrjz8HFf4NacVvMXZeOv-B_iByaixo95bAxC0lnd4ud9sTNVsWJLfK6PCFTS6TifeLIT2XOEfHfkeVFGwuz6sQE3kZa3FDLKXp-Sx6M-SfMEgL9IuSiof2dYHZUqUjItt71RqNBBrgqTRmzN0mV9CGbSe5dUfIcK2jvigr6R6xrIdx5YbFnoF0k_Zx-MluGDLdTXf1Wzu7sZhg3TyS3Rz67JgTJNb16S6Zt_ehC9kCe70XKr_crd2ZhpTyWghF9ZXLHAh3Xgaxx3zUooXOnuiokj-7dkemqkQcKNXoSVeKUjtTXlbqPT2gceC3EWCP7HmaYPIxypPMlKygksMGURuskoyyZIld0psdlPasvDY711NjVDnwqNjzD7Zv-_9MQetXDD3ssEA56wxziyJOmEJqD0za9p02EezCwkeoS4O_qVd9rVbEwG1AyQ6DK-iU0eEt9fLdJmmvTSYrcNQYUc6D6fPFPzgd5Y04h0d5ngclnZvrUioqtU_t1pHtEl2pnql66r0wsRZ_Lokqzbk-Dcdh_f63gKMVswsO-TR-nNqqTXHOPJK6GS40CHW9nJs9u3wDheukHtyCUYTd7sXRZRqjAX4aXokCK_2Vh2dgN-33ZZ9fRjsroPNBvientAvCODTKyN7hvQ2t-wg7NXm-2CCihkbgTpgT-oNyiBiB_2OyTq2FovdKq5XEUpuMSwwTGsEaZAPyoUc-p3gafTPbYNmGMoIIOlYCREN8pWrvDKCK_RMPhBSMko23Cqc2WC8av1zCAbFZWX62IBEpUYTNj_2Gpd6ocIV1uIDHpn3Fob17ITg3gxHE8gPyF6VHVs47AgWENUKg2EXFThOTZy5AYYPA5nM4VFdxFmfG4oGBEYmvCFCqOvakgMAYPIQQuY0b8XGPdaS9SqoS4GjZrWAR3W2hv0A9gY_eRIo9QDEyc4wSVlddtyLvOyTQZu-ZoUZhGe2G5ruk_VeePSO5WrDQicX7U_dCTnvesbiMAkMiaP_4LqfPVrJOz0O6Fs_CgmBIYS1cttOlUY_EZvNd4wDIZAVNJQCNCXlW3QCWyLOU_bnn5TasEmvaL7mHpSsSBKlEElIEWzDGOqqaC7mN8goiVDwMhvKHlV5VPLPoqM9h8Z3DbPbo6uUH15dbgSE4PHkD4mja7jxdR2GPKulbzBdI7DPc8qwKiVG9PNmI9kg-86pE9rSARMC3ZZ7_Q_Tzq4KXZyhI8-Irk_SDXrI_NBfInoExzXqlpy42AR1UWeuTdgzsPYrvH8KFgx6P0FWeFoaFCmiSfcQkz9BjOHd_3m00]--></g></svg>